<?xml version="1.0" encoding="utf-8"?>
<!-- Generator: Adobe Illustrator 27.5.0, SVG Export Plug-In . SVG Version: 6.00 Build 0)  -->
<svg version="1.1" xmlns="http://www.w3.org/2000/svg" xmlns:xlink="http://www.w3.org/1999/xlink" x="0px" y="0px"
	 viewBox="0 0 750 500" style="enable-background:new 0 0 750 500;" xml:space="preserve">
<g id="Background_Simple">
	<g>
		<path style="fill:#92E3A9;" d="M703.547,264.379c0,0-8.445-92.38-91.022-138.986c-82.577-46.606-188.612-19.974-244.915-8.322
			c-56.302,11.651-94.775-12.484-154.831-9.155c-60.056,3.329-141.694,44.942-162.338,116.515s14.773,96.799,5.041,133.289
			c-9.733,36.49-21.931,48.974-18.178,64.787c3.754,15.813,17.948,29.189,17.948,29.189h635.157
			C690.409,451.697,720.437,400.869,703.547,264.379z"/>
		<path style="opacity:0.7;fill:#FFFFFF;" d="M703.547,264.379c0,0-8.445-92.38-91.022-138.986
			c-82.577-46.606-188.612-19.974-244.915-8.322c-56.302,11.651-94.775-12.484-154.831-9.155
			c-60.056,3.329-141.694,44.942-162.338,116.515s14.773,96.799,5.041,133.289c-9.733,36.49-21.931,48.974-18.178,64.787
			c3.754,15.813,17.948,29.189,17.948,29.189h635.157C690.409,451.697,720.437,400.869,703.547,264.379z"/>
	</g>
</g>
<g id="Pyramid_2">
	<g>
		<g>
			<g>
				<polygon style="fill:#D1D1D1;stroke:#9C9C9C;stroke-linecap:round;stroke-linejoin:round;stroke-miterlimit:10;" points="
					690.591,320.058 529.569,320.058 553.722,274.356 666.437,274.356 				"/>
				<polygon style="fill:#DEDEDE;stroke:#9C9C9C;stroke-linecap:round;stroke-linejoin:round;stroke-miterlimit:10;" points="
					629.247,320.058 468.225,320.058 492.378,274.356 605.093,274.356 				"/>
			</g>
			<g>
				<polygon style="fill:#D1D1D1;stroke:#9C9C9C;stroke-linecap:round;stroke-linejoin:round;stroke-miterlimit:10;" points="
					645.415,274.156 630.333,245.617 555.643,245.617 540.56,274.156 				"/>
				<polygon style="fill:#DEDEDE;stroke:#9C9C9C;stroke-linecap:round;stroke-linejoin:round;stroke-miterlimit:10;" points="
					596.746,274.156 581.664,245.617 523.405,245.617 508.322,274.156 				"/>
			</g>
			<g>
				<g>
					
						<rect x="548.264" y="212.361" style="fill:#D1D1D1;stroke:#9C9C9C;stroke-linecap:round;stroke-linejoin:round;stroke-miterlimit:10;" width="41.987" height="16.358"/>
					
						<rect x="548.264" y="212.361" style="fill:#DEDEDE;stroke:#9C9C9C;stroke-linecap:round;stroke-linejoin:round;stroke-miterlimit:10;" width="30.666" height="16.358"/>
				</g>
				
					<rect x="546.584" y="209.907" style="fill:#D1D1D1;stroke:#9C9C9C;stroke-linecap:round;stroke-linejoin:round;stroke-miterlimit:10;" width="44.474" height="8.731"/>
				
					<rect x="579.011" y="209.907" style="fill:#D1D1D1;stroke:#9C9C9C;stroke-linecap:round;stroke-linejoin:round;stroke-miterlimit:10;" width="12.046" height="8.731"/>
				<rect x="554.676" y="221.315" style="fill:#9C9C9C;" width="3.499" height="7.102"/>
				<rect x="559.204" y="221.315" style="fill:#9C9C9C;" width="3.499" height="7.102"/>
				<rect x="563.733" y="221.315" style="fill:#9C9C9C;" width="3.499" height="7.102"/>
			</g>
			<g>
				<polygon style="fill:#D1D1D1;stroke:#9C9C9C;stroke-linecap:round;stroke-linejoin:round;stroke-miterlimit:10;" points="
					549.613,229.088 540.879,245.616 614.17,245.616 605.435,229.088 				"/>
				<polygon style="fill:#DEDEDE;stroke:#9C9C9C;stroke-linecap:round;stroke-linejoin:round;stroke-miterlimit:10;" points="
					541.787,229.088 533.052,245.616 578.646,245.616 569.911,229.088 				"/>
			</g>
		</g>
		<polygon style="fill:#DEDEDE;stroke:#9C9C9C;stroke-linecap:round;stroke-linejoin:round;stroke-miterlimit:10;" points="
			550.971,229.088 513.844,320.377 539.461,320.377 560.461,229.088 		"/>
	</g>
</g>
<g id="Pyramid_1">
	<g>
		<g>
			<g>
				<polygon style="fill:#D1D1D1;stroke:#9C9C9C;stroke-linecap:round;stroke-linejoin:round;stroke-miterlimit:10;" points="
					502.87,319.813 218.117,319.813 260.83,238.993 460.157,238.993 				"/>
				<polygon style="fill:#DEDEDE;stroke:#9C9C9C;stroke-linecap:round;stroke-linejoin:round;stroke-miterlimit:10;" points="
					394.389,319.813 109.636,319.813 152.349,238.993 351.676,238.993 				"/>
			</g>
			<g>
				<polygon style="fill:#D1D1D1;stroke:#9C9C9C;stroke-linecap:round;stroke-linejoin:round;stroke-miterlimit:10;" points="
					422.981,238.639 396.309,188.171 264.227,188.171 237.555,238.639 				"/>
				<polygon style="fill:#DEDEDE;stroke:#9C9C9C;stroke-linecap:round;stroke-linejoin:round;stroke-miterlimit:10;" points="
					336.915,238.639 310.243,188.171 207.217,188.171 180.545,238.639 				"/>
			</g>
			<g>
				<g>
					
						<rect x="251.179" y="129.361" style="fill:#D1D1D1;stroke:#9C9C9C;stroke-linecap:round;stroke-linejoin:round;stroke-miterlimit:10;" width="74.251" height="28.929"/>
					
						<rect x="251.179" y="129.361" style="fill:#DEDEDE;stroke:#9C9C9C;stroke-linecap:round;stroke-linejoin:round;stroke-miterlimit:10;" width="54.23" height="28.929"/>
				</g>
				
					<rect x="248.207" y="125.021" style="fill:#D1D1D1;stroke:#9C9C9C;stroke-linecap:round;stroke-linejoin:round;stroke-miterlimit:10;" width="78.648" height="15.44"/>
				
					<rect x="305.552" y="125.021" style="fill:#D1D1D1;stroke:#9C9C9C;stroke-linecap:round;stroke-linejoin:round;stroke-miterlimit:10;" width="21.302" height="15.44"/>
				<rect x="262.517" y="145.196" style="fill:#9C9C9C;" width="6.188" height="12.559"/>
				<rect x="270.525" y="145.196" style="fill:#9C9C9C;" width="6.188" height="12.559"/>
				<rect x="278.534" y="145.196" style="fill:#9C9C9C;" width="6.188" height="12.559"/>
			</g>
			<g>
				<polygon style="fill:#D1D1D1;stroke:#9C9C9C;stroke-linecap:round;stroke-linejoin:round;stroke-miterlimit:10;" points="
					253.564,158.941 238.118,188.169 367.727,188.169 352.281,158.941 				"/>
				<polygon style="fill:#DEDEDE;stroke:#9C9C9C;stroke-linecap:round;stroke-linejoin:round;stroke-miterlimit:10;" points="
					239.724,158.941 224.277,188.169 304.906,188.169 289.459,158.941 				"/>
			</g>
		</g>
		<polygon style="fill:#DEDEDE;stroke:#9C9C9C;stroke-linecap:round;stroke-linejoin:round;stroke-miterlimit:10;" points="
			255.964,158.941 190.309,320.377 235.61,320.377 272.747,158.941 		"/>
	</g>
</g>
<g id="Plants_1">
	<g>
		<path style="fill:#263238;" d="M90.572,267.259c0.017,0.01,0.306-1.298,0.315-1.383c0.101-0.98-0.279-2.932-1.288-3.377
			c-0.727-0.32-1.512,0.124-1.747,0.849c-0.24,0.741,0.129,1.626,0.55,2.229C88.897,266.285,90.571,267.258,90.572,267.259z"/>
		<path style="fill:#263238;" d="M70.986,267.525c0.803,0.318,2.737,0.206,2.738,0.206c0.02-0.001-0.461-1.252-0.5-1.328
			c-0.456-0.873-1.85-2.292-2.938-2.106c-0.783,0.134-1.193,0.937-0.989,1.672C69.505,266.719,70.301,267.254,70.986,267.525z"/>
		<path style="fill:#263238;" d="M71.852,273.106c0.825,0.091,2.534-0.471,2.67-0.516c0.307,0.957,0.699,1.914,1.15,2.861
			c0.257,0.542,0.533,1.079,0.816,1.615c-0.166-0.225-0.316-0.425-0.339-0.451c-0.67-0.722-2.39-1.722-3.389-1.255
			c-0.72,0.336-0.903,1.219-0.513,1.874c0.399,0.669,1.308,0.974,2.039,1.055c0.742,0.081,2.209-0.368,2.596-0.492
			c0.111,0.204,0.219,0.41,0.331,0.613c0.535,0.978,1.074,1.952,1.572,2.923c0.176,0.342,0.337,0.686,0.499,1.029
			c-0.147-0.2-0.273-0.367-0.295-0.39c-0.67-0.722-2.39-1.722-3.389-1.256c-0.72,0.336-0.903,1.219-0.513,1.874
			c0.399,0.669,1.308,0.974,2.039,1.055c0.708,0.078,2.066-0.325,2.526-0.47c0.155,0.356,0.312,0.713,0.446,1.065
			c0.086,0.243,0.186,0.47,0.259,0.719c0.078,0.244,0.154,0.487,0.231,0.726c0.129,0.467,0.266,0.948,0.381,1.407
			c0.082,0.318,0.155,0.624,0.229,0.93c-0.171-0.343-0.52-1.006-0.556-1.059c-0.553-0.815-2.101-2.064-3.16-1.754
			c-0.763,0.223-1.078,1.068-0.791,1.775c0.293,0.721,1.146,1.161,1.856,1.352c0.782,0.209,2.489-0.068,2.702-0.104
			c0.121,0.509,0.233,1.004,0.332,1.474c0.346,1.623,0.572,2.988,0.717,3.945l0.747-0.026c-0.005-0.029-0.009-0.055-0.014-0.085
			c-0.168-0.966-0.427-2.342-0.812-3.977c-0.121-0.517-0.26-1.067-0.408-1.63c0.127-0.056,0.847-0.377,1.482-0.762
			c0.586,0.591,2.057,1.255,2.247,1.34c-0.18,0.491-0.359,0.966-0.536,1.412c-0.607,1.545-1.172,2.809-1.579,3.688l0.821-0.029
			c0.376-0.872,0.858-2.038,1.369-3.426c0.185-0.498,0.372-1.033,0.559-1.585c0.209,0.036,1.918,0.321,2.702,0.114
			c0.711-0.187,1.566-0.624,1.862-1.344c0.29-0.705-0.022-1.551-0.784-1.778c-1.057-0.314-2.611,0.929-3.167,1.742
			c-0.033,0.048-0.331,0.608-0.513,0.964c0.075-0.226,0.151-0.444,0.225-0.678c0.151-0.46,0.288-0.924,0.437-1.423
			c0.064-0.243,0.128-0.489,0.192-0.737c0.07-0.245,0.112-0.512,0.169-0.77c0.121-0.602,0.214-1.217,0.295-1.84
			c0.404,0.131,1.843,0.576,2.578,0.498c0.731-0.077,1.642-0.379,2.044-1.046c0.393-0.653,0.214-1.537-0.505-1.876
			c-0.998-0.471-2.721,0.523-3.394,1.242c-0.042,0.045-0.467,0.615-0.695,0.933c0.045-0.375,0.092-0.748,0.126-1.128
			c0.097-1.098,0.161-2.212,0.23-3.323c0.021-0.34,0.046-0.679,0.07-1.019c0.143,0.048,1.843,0.613,2.666,0.526
			c0.732-0.077,1.642-0.379,2.044-1.047c0.393-0.653,0.214-1.537-0.505-1.876c-0.998-0.471-2.721,0.523-3.394,1.242
			c-0.051,0.054-0.661,0.876-0.806,1.092c0.052-0.747,0.111-1.492,0.2-2.223c0.12-1.009,0.294-1.993,0.533-2.934
			c0.067,0.023,1.838,0.621,2.681,0.532c0.732-0.077,1.642-0.379,2.044-1.047c0.393-0.653,0.214-1.537-0.505-1.876
			c-0.998-0.471-2.721,0.523-3.394,1.242c-0.044,0.047-0.51,0.672-0.724,0.975c-0.031-0.015-0.026-0.012-0.057-0.027
			c0.268-1.004,0.654-1.944,1.059-2.805c0.233-0.499,0.484-0.964,0.739-1.41c0.319,0.145,1.782,0.793,2.549,0.796
			c0.736,0.003,1.674-0.197,2.146-0.816c0.463-0.606,0.381-1.504-0.296-1.92c-0.94-0.578-2.762,0.221-3.51,0.862
			c-0.041,0.035-0.415,0.435-0.684,0.73c0.118-0.199,0.236-0.408,0.353-0.597c0.437-0.711,0.88-1.335,1.277-1.884
			c0.229-0.311,0.441-0.587,0.643-0.843c0.387-0.02,1.945-0.123,2.616-0.467c0.654-0.336,1.395-0.946,1.529-1.713
			c0.131-0.751-0.355-1.51-1.148-1.568c-1.1-0.079-2.349,1.469-2.718,2.382c-0.032,0.079-0.388,1.371-0.368,1.37
			c0,0,0.019-0.001,0.023-0.001c-0.199,0.243-0.41,0.506-0.634,0.797c-0.41,0.542-0.869,1.158-1.322,1.862
			c-0.455,0.702-0.93,1.478-1.357,2.341c-0.428,0.864-0.835,1.794-1.13,2.808c-0.003,0.012-0.005,0.024-0.009,0.035
			c-0.006-0.323-0.052-1.226-0.063-1.295c-0.161-0.972-1.043-2.755-2.134-2.917c-0.786-0.117-1.426,0.518-1.461,1.28
			c-0.036,0.778,0.554,1.534,1.119,2.005c0.638,0.531,2.373,1.005,2.512,1.042c-0.272,0.967-0.473,1.982-0.619,3.02
			c-0.084,0.593-0.151,1.194-0.21,1.797c-0.014-0.279-0.028-0.529-0.034-0.563c-0.161-0.972-1.043-2.755-2.134-2.917
			c-0.786-0.117-1.426,0.518-1.461,1.28c-0.036,0.778,0.554,1.534,1.119,2.005c0.574,0.477,2.045,0.911,2.436,1.021
			c-0.02,0.232-0.043,0.462-0.063,0.694c-0.093,1.111-0.181,2.22-0.301,3.305c-0.042,0.383-0.097,0.758-0.151,1.133
			c-0.013-0.248-0.026-0.457-0.031-0.488c-0.161-0.972-1.043-2.755-2.134-2.917c-0.786-0.117-1.426,0.518-1.461,1.28
			c-0.036,0.778,0.554,1.534,1.119,2.005c0.548,0.456,1.902,0.868,2.366,1.001c-0.067,0.383-0.133,0.766-0.216,1.134
			c-0.062,0.25-0.104,0.495-0.18,0.743c-0.07,0.247-0.14,0.491-0.208,0.733c-0.15,0.461-0.301,0.938-0.458,1.384
			c-0.107,0.311-0.215,0.605-0.322,0.902c0.046-0.38,0.121-1.126,0.12-1.19c-0.008-0.654-0.278-1.709-0.766-2.44
			c-0.001-0.097-0.01-0.193-0.028-0.288c-0.147-0.748-0.874-1.282-1.634-1.05c-1.055,0.321-1.665,2.215-1.681,3.2
			c-0.001,0.058,0.06,0.689,0.104,1.087c-0.062-0.23-0.119-0.454-0.186-0.689c-0.128-0.467-0.27-0.93-0.421-1.428
			c-0.081-0.238-0.163-0.478-0.246-0.721c-0.077-0.242-0.189-0.489-0.284-0.736c-0.231-0.569-0.493-1.134-0.769-1.697
			c0.409-0.113,1.855-0.537,2.425-1.007c0.567-0.468,1.16-1.222,1.127-2c-0.032-0.762-0.67-1.4-1.456-1.286
			c-1.092,0.158-1.981,1.937-2.146,2.908c-0.01,0.061-0.05,0.771-0.065,1.161c-0.169-0.337-0.335-0.675-0.517-1.011
			c-0.525-0.969-1.086-1.934-1.642-2.899c-0.17-0.295-0.337-0.592-0.504-0.888c0.146-0.039,1.876-0.505,2.514-1.032
			c0.567-0.468,1.16-1.222,1.127-2c-0.032-0.762-0.669-1.4-1.456-1.286c-1.092,0.158-1.981,1.937-2.146,2.908
			c-0.012,0.073-0.068,1.095-0.07,1.355c-0.369-0.652-0.73-1.306-1.06-1.964c-0.457-0.908-0.854-1.825-1.174-2.741
			c0.068-0.018,1.875-0.496,2.53-1.036c0.567-0.468,1.16-1.222,1.127-2c-0.032-0.762-0.67-1.4-1.456-1.286
			c-1.092,0.158-1.981,1.937-2.146,2.908c-0.011,0.064-0.054,0.843-0.066,1.213c-0.034,0.005-0.028,0.004-0.062,0.009
			c-0.331-0.986-0.527-1.982-0.665-2.924c-0.081-0.545-0.128-1.071-0.162-1.584c0.346-0.054,1.923-0.321,2.565-0.742
			c0.616-0.403,1.287-1.087,1.34-1.864c0.051-0.761-0.512-1.465-1.306-1.438c-1.102,0.037-2.182,1.708-2.452,2.655
			c-0.015,0.051-0.106,0.592-0.168,0.986c-0.012-0.231-0.028-0.47-0.035-0.692c-0.028-0.834-0.002-1.599,0.026-2.276
			c0.019-0.385,0.044-0.733,0.071-1.058c0.311-0.231,1.554-1.176,1.924-1.833c0.361-0.641,0.642-1.559,0.33-2.272
			c-0.305-0.699-1.129-1.064-1.822-0.674c-0.961,0.541-1.149,2.521-0.953,3.487c0.017,0.083,0.432,1.357,0.449,1.346
			c0,0,0.015-0.011,0.019-0.014c-0.032,0.312-0.063,0.648-0.089,1.015c-0.043,0.678-0.086,1.445-0.076,2.283
			c0.008,0.837,0.04,1.746,0.16,2.701c0.119,0.957,0.293,1.958,0.606,2.965c0.004,0.011,0.009,0.023,0.012,0.034
			c-0.183-0.266-0.72-0.994-0.767-1.045c-0.67-0.722-2.39-1.722-3.389-1.256c-0.72,0.336-0.903,1.219-0.513,1.874
			C70.211,272.72,71.12,273.025,71.852,273.106z"/>
		<path style="opacity:0.3;fill:#263238;" d="M70.986,267.525c0.803,0.318,2.737,0.206,2.738,0.206
			c0.02-0.001-0.461-1.252-0.5-1.328c-0.456-0.873-1.85-2.292-2.938-2.106c-0.783,0.134-1.193,0.937-0.989,1.672
			C69.505,266.719,70.301,267.254,70.986,267.525z"/>
		<path style="opacity:0.3;fill:#263238;" d="M90.572,267.259c0.017,0.01,0.306-1.298,0.315-1.383
			c0.101-0.98-0.279-2.932-1.288-3.377c-0.727-0.32-1.512,0.124-1.747,0.849c-0.24,0.741,0.129,1.626,0.55,2.229
			C88.897,266.285,90.571,267.258,90.572,267.259z"/>
		<path style="opacity:0.3;fill:#263238;" d="M71.852,273.106c0.825,0.091,2.534-0.471,2.67-0.516
			c0.307,0.957,0.699,1.914,1.15,2.861c0.257,0.542,0.533,1.079,0.816,1.615c-0.166-0.225-0.316-0.425-0.339-0.451
			c-0.67-0.722-2.39-1.722-3.389-1.255c-0.72,0.336-0.903,1.219-0.513,1.874c0.399,0.669,1.308,0.974,2.039,1.055
			c0.742,0.081,2.209-0.368,2.596-0.492c0.111,0.204,0.219,0.41,0.331,0.613c0.535,0.978,1.074,1.952,1.572,2.923
			c0.176,0.342,0.337,0.686,0.499,1.029c-0.147-0.2-0.273-0.367-0.295-0.39c-0.67-0.722-2.39-1.722-3.389-1.256
			c-0.72,0.336-0.903,1.219-0.513,1.874c0.399,0.669,1.308,0.974,2.039,1.055c0.708,0.078,2.066-0.325,2.526-0.47
			c0.155,0.356,0.312,0.713,0.446,1.065c0.086,0.243,0.186,0.47,0.259,0.719c0.078,0.244,0.154,0.487,0.231,0.726
			c0.129,0.467,0.266,0.948,0.381,1.407c0.082,0.318,0.155,0.624,0.229,0.93c-0.171-0.343-0.52-1.006-0.556-1.059
			c-0.553-0.815-2.101-2.064-3.16-1.754c-0.763,0.223-1.078,1.068-0.791,1.775c0.293,0.721,1.146,1.161,1.856,1.352
			c0.782,0.209,2.489-0.068,2.702-0.104c0.121,0.509,0.233,1.004,0.332,1.474c0.346,1.623,0.572,2.988,0.717,3.945l0.747-0.026
			c-0.005-0.029-0.009-0.055-0.014-0.085c-0.168-0.966-0.427-2.342-0.812-3.977c-0.121-0.517-0.26-1.067-0.408-1.63
			c0.127-0.056,0.847-0.377,1.482-0.762c0.586,0.591,2.057,1.255,2.247,1.34c-0.18,0.491-0.359,0.966-0.536,1.412
			c-0.607,1.545-1.172,2.809-1.579,3.688l0.821-0.029c0.376-0.872,0.858-2.038,1.369-3.426c0.185-0.498,0.372-1.033,0.559-1.585
			c0.209,0.036,1.918,0.321,2.702,0.114c0.711-0.187,1.566-0.624,1.862-1.344c0.29-0.705-0.022-1.551-0.784-1.778
			c-1.057-0.314-2.611,0.929-3.167,1.742c-0.033,0.048-0.331,0.608-0.513,0.964c0.075-0.226,0.151-0.444,0.225-0.678
			c0.151-0.46,0.288-0.924,0.437-1.423c0.064-0.243,0.128-0.489,0.192-0.737c0.07-0.245,0.112-0.512,0.169-0.77
			c0.121-0.602,0.214-1.217,0.295-1.84c0.404,0.131,1.843,0.576,2.578,0.498c0.731-0.077,1.642-0.379,2.044-1.046
			c0.393-0.653,0.214-1.537-0.505-1.876c-0.998-0.471-2.721,0.523-3.394,1.242c-0.042,0.045-0.467,0.615-0.695,0.933
			c0.045-0.375,0.092-0.748,0.126-1.128c0.097-1.098,0.161-2.212,0.23-3.323c0.021-0.34,0.046-0.679,0.07-1.019
			c0.143,0.048,1.843,0.613,2.666,0.526c0.732-0.077,1.642-0.379,2.044-1.047c0.393-0.653,0.214-1.537-0.505-1.876
			c-0.998-0.471-2.721,0.523-3.394,1.242c-0.051,0.054-0.661,0.876-0.806,1.092c0.052-0.747,0.111-1.492,0.2-2.223
			c0.12-1.009,0.294-1.993,0.533-2.934c0.067,0.023,1.838,0.621,2.681,0.532c0.732-0.077,1.642-0.379,2.044-1.047
			c0.393-0.653,0.214-1.537-0.505-1.876c-0.998-0.471-2.721,0.523-3.394,1.242c-0.044,0.047-0.51,0.672-0.724,0.975
			c-0.031-0.015-0.026-0.012-0.057-0.027c0.268-1.004,0.654-1.944,1.059-2.805c0.233-0.499,0.484-0.964,0.739-1.41
			c0.319,0.145,1.782,0.793,2.549,0.796c0.736,0.003,1.674-0.197,2.146-0.816c0.463-0.606,0.381-1.504-0.296-1.92
			c-0.94-0.578-2.762,0.221-3.51,0.862c-0.041,0.035-0.415,0.435-0.684,0.73c0.118-0.199,0.236-0.408,0.353-0.597
			c0.437-0.711,0.88-1.335,1.277-1.884c0.229-0.311,0.441-0.587,0.643-0.843c0.387-0.02,1.945-0.123,2.616-0.467
			c0.654-0.336,1.395-0.946,1.529-1.713c0.131-0.751-0.355-1.51-1.148-1.568c-1.1-0.079-2.349,1.469-2.718,2.382
			c-0.032,0.079-0.388,1.371-0.368,1.37c0,0,0.019-0.001,0.023-0.001c-0.199,0.243-0.41,0.506-0.634,0.797
			c-0.41,0.542-0.869,1.158-1.322,1.862c-0.455,0.702-0.93,1.478-1.357,2.341c-0.428,0.864-0.835,1.794-1.13,2.808
			c-0.003,0.012-0.005,0.024-0.009,0.035c-0.006-0.323-0.052-1.226-0.063-1.295c-0.161-0.972-1.043-2.755-2.134-2.917
			c-0.786-0.117-1.426,0.518-1.461,1.28c-0.036,0.778,0.554,1.534,1.119,2.005c0.638,0.531,2.373,1.005,2.512,1.042
			c-0.272,0.967-0.473,1.982-0.619,3.02c-0.084,0.593-0.151,1.194-0.21,1.797c-0.014-0.279-0.028-0.529-0.034-0.563
			c-0.161-0.972-1.043-2.755-2.134-2.917c-0.786-0.117-1.426,0.518-1.461,1.28c-0.036,0.778,0.554,1.534,1.119,2.005
			c0.574,0.477,2.045,0.911,2.436,1.021c-0.02,0.232-0.043,0.462-0.063,0.694c-0.093,1.111-0.181,2.22-0.301,3.305
			c-0.042,0.383-0.097,0.758-0.151,1.133c-0.013-0.248-0.026-0.457-0.031-0.488c-0.161-0.972-1.043-2.755-2.134-2.917
			c-0.786-0.117-1.426,0.518-1.461,1.28c-0.036,0.778,0.554,1.534,1.119,2.005c0.548,0.456,1.902,0.868,2.366,1.001
			c-0.067,0.383-0.133,0.766-0.216,1.134c-0.062,0.25-0.104,0.495-0.18,0.743c-0.07,0.247-0.14,0.491-0.208,0.733
			c-0.15,0.461-0.301,0.938-0.458,1.384c-0.107,0.311-0.215,0.605-0.322,0.902c0.046-0.38,0.121-1.126,0.12-1.19
			c-0.008-0.654-0.278-1.709-0.766-2.44c-0.001-0.097-0.01-0.193-0.028-0.288c-0.147-0.748-0.874-1.282-1.634-1.05
			c-1.055,0.321-1.665,2.215-1.681,3.2c-0.001,0.058,0.06,0.689,0.104,1.087c-0.062-0.23-0.119-0.454-0.186-0.689
			c-0.128-0.467-0.27-0.93-0.421-1.428c-0.081-0.238-0.163-0.478-0.246-0.721c-0.077-0.242-0.189-0.489-0.284-0.736
			c-0.231-0.569-0.493-1.134-0.769-1.697c0.409-0.113,1.855-0.537,2.425-1.007c0.567-0.468,1.16-1.222,1.127-2
			c-0.032-0.762-0.67-1.4-1.456-1.286c-1.092,0.158-1.981,1.937-2.146,2.908c-0.01,0.061-0.05,0.771-0.065,1.161
			c-0.169-0.337-0.335-0.675-0.517-1.011c-0.525-0.969-1.086-1.934-1.642-2.899c-0.17-0.295-0.337-0.592-0.504-0.888
			c0.146-0.039,1.876-0.505,2.514-1.032c0.567-0.468,1.16-1.222,1.127-2c-0.032-0.762-0.669-1.4-1.456-1.286
			c-1.092,0.158-1.981,1.937-2.146,2.908c-0.012,0.073-0.068,1.095-0.07,1.355c-0.369-0.652-0.73-1.306-1.06-1.964
			c-0.457-0.908-0.854-1.825-1.174-2.741c0.068-0.018,1.875-0.496,2.53-1.036c0.567-0.468,1.16-1.222,1.127-2
			c-0.032-0.762-0.67-1.4-1.456-1.286c-1.092,0.158-1.981,1.937-2.146,2.908c-0.011,0.064-0.054,0.843-0.066,1.213
			c-0.034,0.005-0.028,0.004-0.062,0.009c-0.331-0.986-0.527-1.982-0.665-2.924c-0.081-0.545-0.128-1.071-0.162-1.584
			c0.346-0.054,1.923-0.321,2.565-0.742c0.616-0.403,1.287-1.087,1.34-1.864c0.051-0.761-0.512-1.465-1.306-1.438
			c-1.102,0.037-2.182,1.708-2.452,2.655c-0.015,0.051-0.106,0.592-0.168,0.986c-0.012-0.231-0.028-0.47-0.035-0.692
			c-0.028-0.834-0.002-1.599,0.026-2.276c0.019-0.385,0.044-0.733,0.071-1.058c0.311-0.231,1.554-1.176,1.924-1.833
			c0.361-0.641,0.642-1.559,0.33-2.272c-0.305-0.699-1.129-1.064-1.822-0.674c-0.961,0.541-1.149,2.521-0.953,3.487
			c0.017,0.083,0.432,1.357,0.449,1.346c0,0,0.015-0.011,0.019-0.014c-0.032,0.312-0.063,0.648-0.089,1.015
			c-0.043,0.678-0.086,1.445-0.076,2.283c0.008,0.837,0.04,1.746,0.16,2.701c0.119,0.957,0.293,1.958,0.606,2.965
			c0.004,0.011,0.009,0.023,0.012,0.034c-0.183-0.266-0.72-0.994-0.767-1.045c-0.67-0.722-2.39-1.722-3.389-1.256
			c-0.72,0.336-0.903,1.219-0.513,1.874C70.211,272.72,71.12,273.025,71.852,273.106z"/>
	</g>
</g>
<g id="Rocks_2">
	<g>
		<path style="fill:#BDBDBD;" d="M703.954,283.03l-31.825,6.969l-55.505,14.58l-36.703,10.143l-46.679-5.282l-52.014-4.622
			l-46.679-0.66l-57.349-2.641c0,0-26.674-0.66-28.674-0.66c-2,0-18.672,1.981-18.672,1.981l-46.012,4.622h-16.671l-26.007-10.564
			c0,0-36.676,0-38.677,0.66c-2.001,0.66-23.339,0-28.674,0c-5.335,0-55.348-5.282-66.018-5.942
			c-8.732-0.54-54.531-5.945-70.877-7.89v167.973h674.044v-170.3L703.954,283.03z"/>
		<path style="fill:none;stroke:#263238;stroke-linecap:round;stroke-linejoin:round;stroke-miterlimit:10;" d="M31.11,283.03
			c0,0,66.018,7.923,76.687,8.583c10.67,0.66,60.683,5.942,66.018,5.942c5.335,0,26.674,0.66,28.674,0
			c2.001-0.66,38.677-0.66,38.677-0.66l26.007,10.564h16.671l46.012-4.622c0,0,16.671-1.981,18.672-1.981
			c2.001,0,28.674,0.66,28.674,0.66l57.348,2.641l46.679,0.66l52.014,4.622l46.679,5.282l36.703-10.143l55.505-14.58l31.825-6.969
			l11.336-2.641"/>
		<polyline style="fill:none;stroke:#263238;stroke-linecap:round;stroke-linejoin:round;stroke-miterlimit:10;" points="
			85.515,328.902 95.321,334.877 112.67,335.624 130.773,343.092 134.544,349.066 144.35,355.041 		"/>
		<polyline style="fill:none;stroke:#263238;stroke-linecap:round;stroke-linejoin:round;stroke-miterlimit:10;" points="
			452.855,378.192 415.895,356.535 388.74,344.586 364.603,349.066 345.746,336.371 335.185,322.181 316.328,325.168 
			265.036,325.168 249.196,310.979 241.166,296.895 		"/>
		<polyline style="fill:none;stroke:#263238;stroke-linecap:round;stroke-linejoin:round;stroke-miterlimit:10;" points="
			364.603,349.066 377.426,331.89 394.775,328.155 406.089,318.447 419.666,310.979 434.55,304.157 		"/>
		<polyline style="fill:none;stroke:#263238;stroke-linecap:round;stroke-linejoin:round;stroke-miterlimit:10;" points="
			704.788,310.979 685.177,325.915 658.022,322.928 636.148,324.421 		"/>
		<polyline style="fill:none;stroke:#263238;stroke-linecap:round;stroke-linejoin:round;stroke-miterlimit:10;" points="
			173.814,297.555 145.858,300.523 93.812,317.7 63.641,305.004 41.766,309.485 		"/>
	</g>
</g>
<g id="Plants_2">
	<g>
		<path style="fill:#263238;" d="M703.948,381.719c0.017,0.01,0.306-1.298,0.315-1.383c0.101-0.98-0.279-2.933-1.288-3.377
			c-0.727-0.32-1.512,0.124-1.747,0.849c-0.24,0.741,0.129,1.626,0.55,2.229C702.272,380.745,703.947,381.719,703.948,381.719z"/>
		<path style="fill:#263238;" d="M684.361,381.985c0.803,0.318,2.737,0.206,2.738,0.206c0.02-0.001-0.461-1.252-0.5-1.327
			c-0.456-0.873-1.85-2.292-2.938-2.106c-0.783,0.134-1.193,0.937-0.989,1.672C682.881,381.179,683.677,381.714,684.361,381.985z"/>
		<path style="fill:#263238;" d="M685.227,387.566c0.825,0.091,2.534-0.471,2.67-0.516c0.307,0.957,0.699,1.914,1.15,2.861
			c0.257,0.542,0.532,1.079,0.816,1.615c-0.166-0.225-0.315-0.425-0.339-0.451c-0.67-0.722-2.39-1.722-3.389-1.256
			c-0.72,0.336-0.903,1.219-0.513,1.874c0.399,0.669,1.308,0.974,2.039,1.055c0.742,0.082,2.209-0.368,2.596-0.492
			c0.111,0.204,0.219,0.41,0.331,0.613c0.535,0.978,1.074,1.952,1.572,2.923c0.176,0.342,0.337,0.685,0.499,1.029
			c-0.148-0.2-0.273-0.367-0.295-0.39c-0.67-0.722-2.39-1.722-3.389-1.256c-0.72,0.336-0.903,1.219-0.513,1.874
			c0.399,0.669,1.308,0.974,2.039,1.055c0.708,0.078,2.066-0.325,2.526-0.47c0.155,0.356,0.312,0.713,0.446,1.065
			c0.086,0.243,0.186,0.47,0.26,0.719c0.078,0.244,0.154,0.486,0.231,0.726c0.129,0.467,0.266,0.948,0.381,1.407
			c0.082,0.319,0.155,0.624,0.229,0.931c-0.171-0.343-0.52-1.006-0.556-1.059c-0.553-0.815-2.101-2.064-3.16-1.754
			c-0.763,0.223-1.078,1.068-0.791,1.775c0.293,0.721,1.146,1.161,1.856,1.352c0.782,0.209,2.489-0.068,2.702-0.104
			c0.121,0.509,0.233,1.004,0.332,1.474c0.346,1.623,0.572,2.988,0.717,3.945l0.747-0.026c-0.005-0.029-0.009-0.055-0.014-0.085
			c-0.168-0.966-0.427-2.342-0.812-3.977c-0.121-0.517-0.26-1.067-0.408-1.63c0.127-0.056,0.847-0.377,1.482-0.762
			c0.586,0.591,2.057,1.255,2.247,1.34c-0.18,0.491-0.359,0.966-0.536,1.412c-0.607,1.545-1.172,2.809-1.579,3.688l0.82-0.029
			c0.376-0.872,0.858-2.038,1.37-3.426c0.185-0.498,0.372-1.033,0.559-1.585c0.209,0.036,1.918,0.321,2.702,0.114
			c0.711-0.187,1.566-0.624,1.862-1.344c0.29-0.705-0.022-1.551-0.783-1.778c-1.057-0.314-2.611,0.929-3.167,1.742
			c-0.033,0.048-0.331,0.608-0.513,0.964c0.075-0.226,0.151-0.444,0.226-0.677c0.151-0.46,0.288-0.924,0.437-1.423
			c0.064-0.243,0.128-0.489,0.192-0.737c0.07-0.245,0.112-0.512,0.169-0.77c0.121-0.602,0.214-1.217,0.295-1.84
			c0.404,0.131,1.843,0.576,2.578,0.498c0.732-0.078,1.642-0.379,2.044-1.047c0.393-0.653,0.214-1.537-0.505-1.876
			c-0.998-0.471-2.721,0.523-3.394,1.242c-0.042,0.045-0.467,0.615-0.695,0.933c0.045-0.375,0.092-0.748,0.126-1.128
			c0.097-1.098,0.161-2.212,0.23-3.323c0.021-0.341,0.046-0.679,0.07-1.019c0.143,0.048,1.843,0.613,2.666,0.526
			c0.732-0.077,1.642-0.379,2.044-1.046c0.393-0.653,0.214-1.537-0.505-1.876c-0.998-0.471-2.721,0.523-3.394,1.242
			c-0.051,0.054-0.661,0.875-0.806,1.092c0.052-0.747,0.112-1.492,0.2-2.223c0.12-1.009,0.294-1.993,0.533-2.934
			c0.067,0.023,1.838,0.621,2.681,0.532c0.732-0.077,1.642-0.379,2.044-1.047c0.393-0.653,0.214-1.537-0.505-1.876
			c-0.998-0.471-2.721,0.523-3.394,1.242c-0.044,0.047-0.51,0.672-0.724,0.975c-0.031-0.015-0.026-0.012-0.057-0.027
			c0.268-1.004,0.654-1.944,1.059-2.805c0.234-0.499,0.484-0.964,0.739-1.41c0.318,0.145,1.781,0.793,2.549,0.796
			c0.736,0.003,1.674-0.197,2.146-0.816c0.463-0.606,0.381-1.504-0.296-1.92c-0.94-0.577-2.762,0.221-3.51,0.862
			c-0.041,0.035-0.415,0.435-0.684,0.73c0.118-0.2,0.236-0.408,0.353-0.597c0.437-0.711,0.88-1.335,1.277-1.884
			c0.229-0.311,0.441-0.587,0.643-0.843c0.387-0.021,1.945-0.123,2.616-0.467c0.655-0.336,1.395-0.946,1.529-1.713
			c0.131-0.751-0.355-1.51-1.148-1.568c-1.1-0.079-2.349,1.469-2.718,2.382c-0.032,0.079-0.388,1.371-0.368,1.37
			c0,0,0.019-0.001,0.023-0.001c-0.199,0.243-0.41,0.505-0.634,0.797c-0.41,0.542-0.869,1.158-1.322,1.862
			c-0.455,0.702-0.93,1.478-1.357,2.341c-0.429,0.864-0.835,1.795-1.13,2.808c-0.003,0.012-0.005,0.024-0.009,0.035
			c-0.006-0.323-0.052-1.226-0.063-1.295c-0.161-0.972-1.043-2.755-2.134-2.917c-0.786-0.117-1.426,0.518-1.461,1.28
			c-0.036,0.778,0.554,1.534,1.119,2.005c0.638,0.531,2.373,1.005,2.512,1.042c-0.272,0.967-0.473,1.982-0.62,3.021
			c-0.084,0.593-0.151,1.194-0.21,1.797c-0.014-0.279-0.028-0.529-0.034-0.563c-0.161-0.972-1.043-2.755-2.134-2.917
			c-0.786-0.117-1.426,0.518-1.461,1.28c-0.036,0.778,0.554,1.534,1.119,2.005c0.574,0.477,2.045,0.911,2.436,1.021
			c-0.02,0.232-0.043,0.462-0.063,0.694c-0.093,1.111-0.181,2.22-0.301,3.305c-0.042,0.383-0.097,0.758-0.151,1.133
			c-0.013-0.248-0.025-0.457-0.031-0.488c-0.161-0.972-1.043-2.755-2.134-2.917c-0.786-0.117-1.426,0.518-1.461,1.28
			c-0.036,0.778,0.554,1.534,1.119,2.005c0.548,0.456,1.902,0.868,2.366,1.001c-0.067,0.383-0.133,0.766-0.216,1.134
			c-0.062,0.25-0.104,0.495-0.18,0.743c-0.07,0.247-0.14,0.491-0.208,0.733c-0.15,0.461-0.301,0.938-0.458,1.384
			c-0.107,0.311-0.215,0.605-0.322,0.902c0.046-0.38,0.121-1.126,0.12-1.189c-0.008-0.654-0.278-1.709-0.766-2.44
			c-0.001-0.097-0.01-0.193-0.028-0.288c-0.147-0.748-0.874-1.282-1.634-1.05c-1.055,0.321-1.665,2.215-1.681,3.2
			c-0.001,0.058,0.06,0.69,0.104,1.087c-0.062-0.23-0.119-0.454-0.186-0.69c-0.128-0.467-0.27-0.93-0.421-1.428
			c-0.081-0.238-0.163-0.478-0.246-0.721c-0.077-0.242-0.189-0.489-0.284-0.736c-0.231-0.569-0.493-1.134-0.769-1.697
			c0.409-0.113,1.855-0.537,2.425-1.007c0.568-0.468,1.16-1.222,1.127-2c-0.032-0.762-0.669-1.4-1.456-1.286
			c-1.092,0.158-1.981,1.937-2.146,2.908c-0.01,0.061-0.05,0.771-0.065,1.161c-0.169-0.337-0.336-0.675-0.517-1.011
			c-0.525-0.969-1.086-1.934-1.641-2.899c-0.17-0.295-0.336-0.592-0.504-0.888c0.146-0.039,1.876-0.505,2.514-1.032
			c0.568-0.468,1.16-1.222,1.127-2c-0.032-0.762-0.669-1.4-1.456-1.286c-1.092,0.158-1.981,1.937-2.146,2.908
			c-0.012,0.073-0.068,1.095-0.07,1.355c-0.369-0.652-0.73-1.306-1.06-1.964c-0.457-0.908-0.854-1.825-1.174-2.741
			c0.068-0.018,1.875-0.496,2.529-1.036c0.568-0.468,1.16-1.222,1.127-2c-0.032-0.762-0.67-1.4-1.456-1.286
			c-1.092,0.158-1.981,1.937-2.146,2.908c-0.011,0.064-0.054,0.843-0.066,1.213c-0.034,0.005-0.028,0.004-0.062,0.009
			c-0.331-0.986-0.527-1.982-0.665-2.924c-0.081-0.545-0.128-1.071-0.162-1.584c0.346-0.054,1.923-0.321,2.565-0.742
			c0.615-0.403,1.288-1.087,1.34-1.864c0.051-0.761-0.512-1.465-1.306-1.438c-1.102,0.037-2.182,1.708-2.452,2.655
			c-0.015,0.051-0.106,0.592-0.168,0.986c-0.012-0.231-0.028-0.47-0.035-0.692c-0.028-0.834-0.002-1.599,0.026-2.276
			c0.019-0.385,0.044-0.733,0.071-1.058c0.311-0.231,1.555-1.176,1.924-1.833c0.36-0.641,0.641-1.558,0.33-2.272
			c-0.305-0.699-1.129-1.064-1.822-0.674c-0.961,0.541-1.149,2.521-0.953,3.487c0.017,0.083,0.432,1.357,0.449,1.346
			c0,0,0.015-0.011,0.019-0.014c-0.032,0.312-0.063,0.648-0.089,1.015c-0.043,0.678-0.086,1.445-0.076,2.283
			c0.008,0.837,0.04,1.746,0.16,2.701c0.119,0.957,0.293,1.958,0.606,2.965c0.004,0.011,0.009,0.023,0.012,0.034
			c-0.183-0.266-0.72-0.994-0.767-1.045c-0.67-0.722-2.39-1.722-3.389-1.255c-0.72,0.336-0.903,1.219-0.513,1.874
			C683.586,387.18,684.496,387.486,685.227,387.566z"/>
		<path style="opacity:0.3;fill:#263238;" d="M684.361,381.985c0.803,0.318,2.737,0.206,2.738,0.206
			c0.02-0.001-0.461-1.252-0.5-1.327c-0.456-0.873-1.85-2.292-2.938-2.106c-0.783,0.134-1.193,0.937-0.989,1.672
			C682.881,381.179,683.677,381.714,684.361,381.985z"/>
		<path style="opacity:0.3;fill:#263238;" d="M703.948,381.719c0.017,0.01,0.306-1.298,0.315-1.383
			c0.101-0.98-0.279-2.933-1.288-3.377c-0.727-0.32-1.512,0.124-1.747,0.849c-0.24,0.741,0.129,1.626,0.55,2.229
			C702.272,380.745,703.947,381.719,703.948,381.719z"/>
		<path style="opacity:0.3;fill:#263238;" d="M685.227,387.566c0.825,0.091,2.534-0.471,2.67-0.516
			c0.307,0.957,0.699,1.914,1.15,2.861c0.257,0.542,0.532,1.079,0.816,1.615c-0.166-0.225-0.315-0.425-0.339-0.451
			c-0.67-0.722-2.39-1.722-3.389-1.256c-0.72,0.336-0.903,1.219-0.513,1.874c0.399,0.669,1.308,0.974,2.039,1.055
			c0.742,0.082,2.209-0.368,2.596-0.492c0.111,0.204,0.219,0.41,0.331,0.613c0.535,0.978,1.074,1.952,1.572,2.923
			c0.176,0.342,0.337,0.685,0.499,1.029c-0.148-0.2-0.273-0.367-0.295-0.39c-0.67-0.722-2.39-1.722-3.389-1.256
			c-0.72,0.336-0.903,1.219-0.513,1.874c0.399,0.669,1.308,0.974,2.039,1.055c0.708,0.078,2.066-0.325,2.526-0.47
			c0.155,0.356,0.312,0.713,0.446,1.065c0.086,0.243,0.186,0.47,0.26,0.719c0.078,0.244,0.154,0.486,0.231,0.726
			c0.129,0.467,0.266,0.948,0.381,1.407c0.082,0.319,0.155,0.624,0.229,0.931c-0.171-0.343-0.52-1.006-0.556-1.059
			c-0.553-0.815-2.101-2.064-3.16-1.754c-0.763,0.223-1.078,1.068-0.791,1.775c0.293,0.721,1.146,1.161,1.856,1.352
			c0.782,0.209,2.489-0.068,2.702-0.104c0.121,0.509,0.233,1.004,0.332,1.474c0.346,1.623,0.572,2.988,0.717,3.945l0.747-0.026
			c-0.005-0.029-0.009-0.055-0.014-0.085c-0.168-0.966-0.427-2.342-0.812-3.977c-0.121-0.517-0.26-1.067-0.408-1.63
			c0.127-0.056,0.847-0.377,1.482-0.762c0.586,0.591,2.057,1.255,2.247,1.34c-0.18,0.491-0.359,0.966-0.536,1.412
			c-0.607,1.545-1.172,2.809-1.579,3.688l0.82-0.029c0.376-0.872,0.858-2.038,1.37-3.426c0.185-0.498,0.372-1.033,0.559-1.585
			c0.209,0.036,1.918,0.321,2.702,0.114c0.711-0.187,1.566-0.624,1.862-1.344c0.29-0.705-0.022-1.551-0.783-1.778
			c-1.057-0.314-2.611,0.929-3.167,1.742c-0.033,0.048-0.331,0.608-0.513,0.964c0.075-0.226,0.151-0.444,0.226-0.677
			c0.151-0.46,0.288-0.924,0.437-1.423c0.064-0.243,0.128-0.489,0.192-0.737c0.07-0.245,0.112-0.512,0.169-0.77
			c0.121-0.602,0.214-1.217,0.295-1.84c0.404,0.131,1.843,0.576,2.578,0.498c0.732-0.078,1.642-0.379,2.044-1.047
			c0.393-0.653,0.214-1.537-0.505-1.876c-0.998-0.471-2.721,0.523-3.394,1.242c-0.042,0.045-0.467,0.615-0.695,0.933
			c0.045-0.375,0.092-0.748,0.126-1.128c0.097-1.098,0.161-2.212,0.23-3.323c0.021-0.341,0.046-0.679,0.07-1.019
			c0.143,0.048,1.843,0.613,2.666,0.526c0.732-0.077,1.642-0.379,2.044-1.046c0.393-0.653,0.214-1.537-0.505-1.876
			c-0.998-0.471-2.721,0.523-3.394,1.242c-0.051,0.054-0.661,0.875-0.806,1.092c0.052-0.747,0.112-1.492,0.2-2.223
			c0.12-1.009,0.294-1.993,0.533-2.934c0.067,0.023,1.838,0.621,2.681,0.532c0.732-0.077,1.642-0.379,2.044-1.047
			c0.393-0.653,0.214-1.537-0.505-1.876c-0.998-0.471-2.721,0.523-3.394,1.242c-0.044,0.047-0.51,0.672-0.724,0.975
			c-0.031-0.015-0.026-0.012-0.057-0.027c0.268-1.004,0.654-1.944,1.059-2.805c0.234-0.499,0.484-0.964,0.739-1.41
			c0.318,0.145,1.781,0.793,2.549,0.796c0.736,0.003,1.674-0.197,2.146-0.816c0.463-0.606,0.381-1.504-0.296-1.92
			c-0.94-0.577-2.762,0.221-3.51,0.862c-0.041,0.035-0.415,0.435-0.684,0.73c0.118-0.2,0.236-0.408,0.353-0.597
			c0.437-0.711,0.88-1.335,1.277-1.884c0.229-0.311,0.441-0.587,0.643-0.843c0.387-0.021,1.945-0.123,2.616-0.467
			c0.655-0.336,1.395-0.946,1.529-1.713c0.131-0.751-0.355-1.51-1.148-1.568c-1.1-0.079-2.349,1.469-2.718,2.382
			c-0.032,0.079-0.388,1.371-0.368,1.37c0,0,0.019-0.001,0.023-0.001c-0.199,0.243-0.41,0.505-0.634,0.797
			c-0.41,0.542-0.869,1.158-1.322,1.862c-0.455,0.702-0.93,1.478-1.357,2.341c-0.429,0.864-0.835,1.795-1.13,2.808
			c-0.003,0.012-0.005,0.024-0.009,0.035c-0.006-0.323-0.052-1.226-0.063-1.295c-0.161-0.972-1.043-2.755-2.134-2.917
			c-0.786-0.117-1.426,0.518-1.461,1.28c-0.036,0.778,0.554,1.534,1.119,2.005c0.638,0.531,2.373,1.005,2.512,1.042
			c-0.272,0.967-0.473,1.982-0.62,3.021c-0.084,0.593-0.151,1.194-0.21,1.797c-0.014-0.279-0.028-0.529-0.034-0.563
			c-0.161-0.972-1.043-2.755-2.134-2.917c-0.786-0.117-1.426,0.518-1.461,1.28c-0.036,0.778,0.554,1.534,1.119,2.005
			c0.574,0.477,2.045,0.911,2.436,1.021c-0.02,0.232-0.043,0.462-0.063,0.694c-0.093,1.111-0.181,2.22-0.301,3.305
			c-0.042,0.383-0.097,0.758-0.151,1.133c-0.013-0.248-0.025-0.457-0.031-0.488c-0.161-0.972-1.043-2.755-2.134-2.917
			c-0.786-0.117-1.426,0.518-1.461,1.28c-0.036,0.778,0.554,1.534,1.119,2.005c0.548,0.456,1.902,0.868,2.366,1.001
			c-0.067,0.383-0.133,0.766-0.216,1.134c-0.062,0.25-0.104,0.495-0.18,0.743c-0.07,0.247-0.14,0.491-0.208,0.733
			c-0.15,0.461-0.301,0.938-0.458,1.384c-0.107,0.311-0.215,0.605-0.322,0.902c0.046-0.38,0.121-1.126,0.12-1.189
			c-0.008-0.654-0.278-1.709-0.766-2.44c-0.001-0.097-0.01-0.193-0.028-0.288c-0.147-0.748-0.874-1.282-1.634-1.05
			c-1.055,0.321-1.665,2.215-1.681,3.2c-0.001,0.058,0.06,0.69,0.104,1.087c-0.062-0.23-0.119-0.454-0.186-0.69
			c-0.128-0.467-0.27-0.93-0.421-1.428c-0.081-0.238-0.163-0.478-0.246-0.721c-0.077-0.242-0.189-0.489-0.284-0.736
			c-0.231-0.569-0.493-1.134-0.769-1.697c0.409-0.113,1.855-0.537,2.425-1.007c0.568-0.468,1.16-1.222,1.127-2
			c-0.032-0.762-0.669-1.4-1.456-1.286c-1.092,0.158-1.981,1.937-2.146,2.908c-0.01,0.061-0.05,0.771-0.065,1.161
			c-0.169-0.337-0.336-0.675-0.517-1.011c-0.525-0.969-1.086-1.934-1.641-2.899c-0.17-0.295-0.336-0.592-0.504-0.888
			c0.146-0.039,1.876-0.505,2.514-1.032c0.568-0.468,1.16-1.222,1.127-2c-0.032-0.762-0.669-1.4-1.456-1.286
			c-1.092,0.158-1.981,1.937-2.146,2.908c-0.012,0.073-0.068,1.095-0.07,1.355c-0.369-0.652-0.73-1.306-1.06-1.964
			c-0.457-0.908-0.854-1.825-1.174-2.741c0.068-0.018,1.875-0.496,2.529-1.036c0.568-0.468,1.16-1.222,1.127-2
			c-0.032-0.762-0.67-1.4-1.456-1.286c-1.092,0.158-1.981,1.937-2.146,2.908c-0.011,0.064-0.054,0.843-0.066,1.213
			c-0.034,0.005-0.028,0.004-0.062,0.009c-0.331-0.986-0.527-1.982-0.665-2.924c-0.081-0.545-0.128-1.071-0.162-1.584
			c0.346-0.054,1.923-0.321,2.565-0.742c0.615-0.403,1.288-1.087,1.34-1.864c0.051-0.761-0.512-1.465-1.306-1.438
			c-1.102,0.037-2.182,1.708-2.452,2.655c-0.015,0.051-0.106,0.592-0.168,0.986c-0.012-0.231-0.028-0.47-0.035-0.692
			c-0.028-0.834-0.002-1.599,0.026-2.276c0.019-0.385,0.044-0.733,0.071-1.058c0.311-0.231,1.555-1.176,1.924-1.833
			c0.36-0.641,0.641-1.558,0.33-2.272c-0.305-0.699-1.129-1.064-1.822-0.674c-0.961,0.541-1.149,2.521-0.953,3.487
			c0.017,0.083,0.432,1.357,0.449,1.346c0,0,0.015-0.011,0.019-0.014c-0.032,0.312-0.063,0.648-0.089,1.015
			c-0.043,0.678-0.086,1.445-0.076,2.283c0.008,0.837,0.04,1.746,0.16,2.701c0.119,0.957,0.293,1.958,0.606,2.965
			c0.004,0.011,0.009,0.023,0.012,0.034c-0.183-0.266-0.72-0.994-0.767-1.045c-0.67-0.722-2.39-1.722-3.389-1.255
			c-0.72,0.336-0.903,1.219-0.513,1.874C683.586,387.18,684.496,387.486,685.227,387.566z"/>
	</g>
</g>
<g id="Rocks_1">
	<g>
		<g>
			<polygon style="fill:#C7C7C7;stroke:#263238;stroke-linecap:round;stroke-linejoin:round;stroke-miterlimit:10;" points="
				721.907,451.697 644.969,335.416 603.729,315.235 586.18,327.519 558.979,354.72 539.674,366.127 442.981,451.697 			"/>
			<polygon style="fill:#9E9E9E;stroke:#263238;stroke-linecap:round;stroke-linejoin:round;stroke-miterlimit:10;" points="
				603.509,451.697 721.043,451.697 644.969,335.416 603.729,315.235 610.748,344.191 618.646,352.088 614.258,376.657 
				560.733,388.941 559.856,411.755 609.871,431.937 			"/>
			<g>
				<path style="fill:#C7C7C7;stroke:#263238;stroke-linecap:round;stroke-linejoin:round;stroke-miterlimit:10;" d="
					M730.598,451.697l-4.902-33.499l-21.937-12.284l-26.324-10.53c0,0-14.917-1.755-18.427,5.265l-18.427,21.936l-10.529,21.059
					l-3.355,8.052H730.598z"/>
				<path style="fill:#9E9E9E;stroke:#263238;stroke-linecap:round;stroke-linejoin:round;stroke-miterlimit:10;" d="
					M704.044,438.062l-3.484,13.634h31.461l-6.325-33.499c0,0-36.114-25.525-48.26-22.814l31.453,30.567L704.044,438.062z"/>
			</g>
		</g>
		<g>
			<polygon style="fill:#C7C7C7;stroke:#263238;stroke-linecap:round;stroke-linejoin:round;stroke-miterlimit:10;" points="
				683.059,450.79 643.176,390.513 621.875,380.089 612.81,386.434 598.76,400.483 588.79,406.375 537.576,451.697 			"/>
			<polygon style="fill:#9E9E9E;stroke:#263238;stroke-linecap:round;stroke-linejoin:round;stroke-miterlimit:10;" points="
				621.875,380.089 625.5,395.045 629.579,399.124 627.313,411.814 599.667,418.159 599.214,429.942 625.047,440.366 
				621.875,450.79 683.059,450.79 643.176,390.513 			"/>
			<g>
				<path style="fill:#C7C7C7;stroke:#263238;stroke-linecap:round;stroke-linejoin:round;stroke-miterlimit:10;" d="
					M650.427,423.597l-9.517,11.33l-5.439,10.877l-2.266,5.439h54.386l-2.719-18.582l-11.33-6.345l-13.596-5.439
					C659.945,420.878,652.24,419.971,650.427,423.597z"/>
				<path style="fill:#9E9E9E;stroke:#263238;stroke-linecap:round;stroke-linejoin:round;stroke-miterlimit:10;" d="
					M659.945,420.878l16.246,15.788l-2.502,6.255l-1.877,8.132h15.779l-2.719-18.392
					C684.871,432.662,666.218,419.477,659.945,420.878z"/>
			</g>
		</g>
	</g>
	<g>
		<g>
			<polygon style="fill:#C7C7C7;stroke:#263238;stroke-linecap:round;stroke-linejoin:round;stroke-miterlimit:10;" points="
				59.977,451.697 171.061,274.809 230.605,244.109 255.943,262.796 295.217,304.175 323.089,321.527 462.697,451.697 			"/>
			<polygon style="fill:#9E9E9E;stroke:#263238;stroke-linecap:round;stroke-linejoin:round;stroke-miterlimit:10;" points="
				230.922,451.697 61.224,451.697 171.061,274.809 230.605,244.109 220.47,288.157 209.068,300.17 215.402,337.545 
				292.683,356.232 293.95,390.937 221.737,421.637 			"/>
			<g>
				<path style="fill:#C7C7C7;stroke:#263238;stroke-linecap:round;stroke-linejoin:round;stroke-miterlimit:10;" d="
					M47.428,451.697l7.078-50.959l31.673-18.687l38.007-16.018c0,0,21.537-2.67,26.605,8.009l26.605,33.37l15.203,32.035
					l4.844,12.25H47.428z"/>
				<path style="fill:#9E9E9E;stroke:#263238;stroke-linecap:round;stroke-linejoin:round;stroke-miterlimit:10;" d="
					M85.767,430.956l5.031,20.741H45.374l9.133-50.959c0,0,52.142-38.83,69.679-34.705l-45.413,46.499L85.767,430.956z"/>
			</g>
		</g>
		<g>
			<polygon style="fill:#C7C7C7;stroke:#263238;stroke-linecap:round;stroke-linejoin:round;stroke-miterlimit:10;" points="
				116.067,450.318 173.651,358.622 204.406,342.765 217.493,352.417 237.778,373.79 252.174,382.753 326.118,451.697 			"/>
			<polygon style="fill:#9E9E9E;stroke:#263238;stroke-linecap:round;stroke-linejoin:round;stroke-miterlimit:10;" points="
				204.406,342.765 199.171,365.517 193.282,371.722 196.553,391.026 236.47,400.678 237.124,418.603 199.825,434.461 
				204.406,450.318 116.067,450.318 173.651,358.622 			"/>
			<g>
				<path style="fill:#C7C7C7;stroke:#263238;stroke-linecap:round;stroke-linejoin:round;stroke-miterlimit:10;" d="
					M163.181,408.951l13.742,17.236l7.852,16.546l3.272,8.273h-78.524l3.926-28.267l16.359-9.652l19.631-8.273
					C149.439,404.815,160.563,403.436,163.181,408.951z"/>
				<path style="fill:#9E9E9E;stroke:#263238;stroke-linecap:round;stroke-linejoin:round;stroke-miterlimit:10;" d="
					M149.439,404.815l-23.456,24.017l3.613,9.516l2.71,12.371h-22.782l3.926-27.979C113.449,422.74,140.381,402.684,149.439,404.815
					z"/>
			</g>
		</g>
	</g>
</g>
<g id="Clouds">
	<path style="fill:none;stroke:#9C9C9C;stroke-linecap:round;stroke-linejoin:round;stroke-miterlimit:10;" d="M580.198,128.214
		c0,0-0.926-15.748-23.158-21.306s-41.685,18.527-47.243,22.232c-5.558,3.705-8.337-12.969-24.085-10.19
		c-15.748,2.779-12.969,12.042-20.379,13.895c-7.411,1.853-13.895-6.484-23.158-5.558c-9.263,0.926-7.411,4.632-11.116,9.263
		c-3.705,4.632-10.19,0-18.527,1.853c-8.337,1.853-12.969,3.705-12.969,6.484h213.983c0,0-0.926-11.116-11.116-12.969
		C592.24,130.067,584.829,131.92,580.198,128.214z"/>
	<path style="fill:none;stroke:#9C9C9C;stroke-linecap:round;stroke-linejoin:round;stroke-miterlimit:10;" d="M347.542,84.057
		c0,0-0.343-5.838-8.586-7.899c-8.242-2.061-15.454,6.868-17.515,8.242c-2.061,1.374-3.091-4.808-8.929-3.778
		c-5.838,1.03-4.808,4.465-7.555,5.151c-2.747,0.687-5.151-2.404-8.586-2.061c-3.434,0.343-2.747,1.717-4.121,3.434
		c-1.374,1.717-3.778,0-6.868,0.687c-3.091,0.687-4.808,1.374-4.808,2.404h79.331c0,0-0.344-4.121-4.121-4.808
		C352.007,84.744,349.259,85.431,347.542,84.057z"/>
	<path style="fill:none;stroke:#9C9C9C;stroke-linecap:round;stroke-linejoin:round;stroke-miterlimit:10;" d="M631.593,184.053
		c0,0-0.343-5.838-8.586-7.899c-8.242-2.061-15.454,6.868-17.515,8.242c-2.061,1.374-3.091-4.808-8.929-3.778
		c-5.838,1.03-4.808,4.464-7.555,5.151c-2.747,0.687-5.151-2.404-8.586-2.061c-3.434,0.343-2.747,1.717-4.121,3.434
		c-1.374,1.717-3.778,0-6.868,0.687c-3.091,0.687-4.808,1.374-4.808,2.404h79.331c0,0-0.344-4.121-4.121-4.808
		C636.058,184.74,633.311,185.427,631.593,184.053z"/>
	<path style="fill:none;stroke:#9C9C9C;stroke-linecap:round;stroke-linejoin:round;stroke-miterlimit:10;" d="M109.345,206.325
		c0,0-0.343-5.838-8.586-7.899c-8.242-2.061-15.454,6.868-17.515,8.242c-2.061,1.374-3.091-4.808-8.929-3.778
		c-5.838,1.03-4.808,4.465-7.555,5.151c-2.747,0.687-5.151-2.404-8.586-2.061c-3.434,0.343-2.747,1.717-4.121,3.434
		c-1.374,1.717-3.778,0-6.868,0.687c-3.091,0.687-4.808,1.374-4.808,2.404h79.331c0,0-0.343-4.121-4.121-4.808
		C113.809,207.012,111.062,207.699,109.345,206.325z"/>
</g>
<g id="Sun">
	<g>
		
			<ellipse transform="matrix(0.1425 -0.9898 0.9898 0.1425 12.4062 210.3515)" style="fill:none;stroke:#9C9C9C;stroke-linecap:round;stroke-linejoin:round;stroke-miterlimit:10;" cx="127.61" cy="98.015" rx="28.678" ry="28.678"/>
		
			<line style="fill:none;stroke:#9C9C9C;stroke-linecap:round;stroke-linejoin:round;stroke-miterlimit:10;" x1="126.792" y1="133.05" x2="126.792" y2="198.59"/>
		
			<line style="fill:none;stroke:#9C9C9C;stroke-linecap:round;stroke-linejoin:round;stroke-miterlimit:10;" x1="142.464" y1="133.762" x2="164.006" y2="192.377"/>
		
			<line style="fill:none;stroke:#9C9C9C;stroke-linecap:round;stroke-linejoin:round;stroke-miterlimit:10;" x1="209.281" y1="129.144" x2="219.23" y2="133.124"/>
		
			<line style="fill:none;stroke:#9C9C9C;stroke-linecap:round;stroke-linejoin:round;stroke-miterlimit:10;" x1="160.274" y1="109.541" x2="203.631" y2="126.884"/>
		
			<line style="fill:none;stroke:#9C9C9C;stroke-linecap:round;stroke-linejoin:round;stroke-miterlimit:10;" x1="163.836" y1="97.43" x2="186.632" y2="97.43"/>
		
			<line style="fill:none;stroke:#9C9C9C;stroke-linecap:round;stroke-linejoin:round;stroke-miterlimit:10;" x1="174.014" y1="44.265" x2="183.07" y2="34.028"/>
		
			<line style="fill:none;stroke:#9C9C9C;stroke-linecap:round;stroke-linejoin:round;stroke-miterlimit:10;" x1="150.3" y1="71.072" x2="168.372" y2="50.644"/>
		
			<line style="fill:none;stroke:#9C9C9C;stroke-linecap:round;stroke-linejoin:round;stroke-miterlimit:10;" x1="91.884" y1="100.28" x2="69.088" y2="100.28"/>
		
			<line style="fill:none;stroke:#9C9C9C;stroke-linecap:round;stroke-linejoin:round;stroke-miterlimit:10;" x1="89.226" y1="76.255" x2="65.541" y2="62.679"/>
		
			<line style="fill:none;stroke:#9C9C9C;stroke-linecap:round;stroke-linejoin:round;stroke-miterlimit:10;" x1="97.584" y1="81.045" x2="92.908" y2="78.365"/>
		
			<line style="fill:none;stroke:#9C9C9C;stroke-linecap:round;stroke-linejoin:round;stroke-miterlimit:10;" x1="114.546" y1="54.164" x2="108.982" y2="40.439"/>
		
			<line style="fill:none;stroke:#9C9C9C;stroke-linecap:round;stroke-linejoin:round;stroke-miterlimit:10;" x1="119.668" y1="66.798" x2="117.281" y2="60.911"/>
		
			<line style="fill:none;stroke:#9C9C9C;stroke-linecap:round;stroke-linejoin:round;stroke-miterlimit:10;" x1="78.691" y1="149.094" x2="71.137" y2="157.304"/>
		
			<line style="fill:none;stroke:#9C9C9C;stroke-linecap:round;stroke-linejoin:round;stroke-miterlimit:10;" x1="103.283" y1="122.364" x2="83.462" y2="143.908"/>
		
			<line style="fill:none;stroke:#9C9C9C;stroke-linecap:round;stroke-linejoin:round;stroke-miterlimit:10;" x1="116.106" y1="130.913" x2="108.269" y2="145.16"/>
		
			<line style="fill:none;stroke:#9C9C9C;stroke-linecap:round;stroke-linejoin:round;stroke-miterlimit:10;" x1="154.575" y1="123.076" x2="165.973" y2="132.337"/>
	</g>
</g>
<g id="Character">
	<g>
		<g>
			<path style="fill:#FFFFFF;stroke:#263238;stroke-linecap:round;stroke-linejoin:round;stroke-miterlimit:10;" d="
				M507.518,435.968c0,0,25.721-8.056,33.708-9.861c7.987-1.805,9.673,2.907,10.905,5.69c1.232,2.783,2.662,12.932,1.434,15.872
				c-1.228,2.94,2.268,3.922,5.013,3.505c2.745-0.416,7.859,0.914,10.575-4.681c2.715-5.595,3.111-14.024,0.945-20.12
				c-2.166-6.097-3.232-12.414-3.232-12.414s3.004-0.131,3.998-3.9c0.995-3.768-2.064-8.272-4.294-13.009
				c-2.23-4.737-7.562-1.445-35.679,5.409c-28.117,6.854-32.243,13.472-32.243,13.472L507.518,435.968z"/>
			<path style="fill:none;stroke:#263238;stroke-linecap:round;stroke-linejoin:round;stroke-miterlimit:10;" d="M526.567,430.163
				l-7.839-24.319c-17.203,5.495-20.079,10.087-20.079,10.087l8.868,20.036C507.518,435.968,517.227,432.927,526.567,430.163z"/>
			<path style="fill:#92E3A9;stroke:#263238;stroke-linecap:round;stroke-linejoin:round;stroke-miterlimit:10;" d="
				M569.153,446.494c2.715-5.595,3.111-14.024,0.945-20.12c-2.166-6.097-3.232-12.414-3.232-12.414s3.004-0.131,3.998-3.9
				c0.995-3.768-2.064-8.272-4.294-13.009c-2.23-4.737-7.562-1.445-35.679,5.409c-3.451,0.841-6.537,1.679-9.302,2.501l9.21,23.964
				c4.263-1.233,8.098-2.291,10.425-2.817c7.987-1.805,9.673,2.907,10.905,5.69c1.232,2.783,2.662,12.932,1.434,15.872
				c-1.228,2.94,2.268,3.922,5.013,3.505C561.322,450.758,566.437,452.089,569.153,446.494z"/>
			<path style="fill:#263238;stroke:#263238;stroke-linecap:round;stroke-linejoin:round;stroke-miterlimit:10;" d="
				M525.858,430.373c3.222-0.956,6.428-1.889,9.211-2.664l-11.029-23.456c-1.908,0.536-3.674,1.067-5.312,1.591L525.858,430.373z"/>
			<path style="fill:#263238;stroke:#263238;stroke-linecap:round;stroke-linejoin:round;stroke-miterlimit:10;" d="
				M569.153,446.494c2.715-5.595,3.111-14.024,0.945-20.12c-2.166-6.097-3.232-12.414-3.232-12.414s3.004-0.131,3.998-3.9
				c0.995-3.768-2.064-8.272-4.294-13.009c-1.169-2.483-3.197-2.757-8.903-1.472c0.988,2.684,2.758,7.688,4.029,12.415
				c1.856,6.9,7.08,17.5,6.387,26.46c-0.625,8.081-5.849,15.259-6.871,16.594C563.899,450.972,567.167,450.586,569.153,446.494z"/>
		</g>
		<g>
			<path style="fill:#263238;stroke:#263238;stroke-linecap:round;stroke-linejoin:round;stroke-miterlimit:10;" d="
				M467.031,392.918c0,0-36.339,25.27-39.637,31.655c-3.297,6.385,1.642,17.245,5.542,21.243s18.182,7.394,31.841,6.673
				c13.659-0.721,49.597-5.845,49.597-5.845l-6.412-25.916c0,0,54.947-21.126,58.609-23.678c3.662-2.553,9.794-11.257,8.996-23.285
				c-0.797-12.027-6.328-16.102-6.328-16.102s-27.752,10.686-43.403,13.22c-15.651,2.535-34.137,7.389-34.137,7.389L467.031,392.918
				z"/>
			
				<line style="fill:none;stroke:#969696;stroke-linecap:round;stroke-linejoin:round;stroke-miterlimit:10;" x1="507.961" y1="420.729" x2="453.375" y2="439.964"/>
			
				<line style="fill:none;stroke:#969696;stroke-linecap:round;stroke-linejoin:round;stroke-miterlimit:10;" x1="474.695" y1="432.791" x2="442.458" y2="434.546"/>
		</g>
		<path style="fill:#FFFFFF;stroke:#263238;stroke-linecap:round;stroke-linejoin:round;stroke-miterlimit:10;" d="M411.703,364.159
			l-16.297,4.684c0,0-20.099-7.212-21.781-6.201s-4.998,19.385-4.998,19.385s1.347,0.336,4.401-0.883
			c3.055-1.219,10.812,1.871,15.162,2.075c4.35,0.204,14.577-2.858,14.577-2.858l14.394-4.774L411.703,364.159z"/>
		<path style="fill:#FFFFFF;stroke:#263238;stroke-linecap:round;stroke-linejoin:round;stroke-miterlimit:10;" d="M365.399,375.326
			c0,0-1.116,4.145-1.674,5.66c-0.558,1.515-1.674,2.949-0.877,3.507c0.797,0.558,1.993-0.797,3.189-2.232
			c1.196-1.435,6.991-1.117,6.991-1.117s2.017-4.941,1.22-7.173c-0.797-2.232-4.305-1.276-5.421-0.558
			C367.71,374.13,365.399,375.326,365.399,375.326z"/>
		<g>
			<path style="fill:#FFFFFF;stroke:#263238;stroke-linecap:round;stroke-linejoin:round;stroke-miterlimit:10;" d="M377.98,351.13
				l-11.993,34.861c0,0-7.443,1.83-8.374,4.239c-0.931,2.409-6.358,19.321-6.358,19.321l13.863-5.071
				c0,0,10.049-16.695,10.423-18.857c0.374-2.162-4.066-0.464-4.066-0.464s9.617-25.44,11.037-31.909
				C384.94,342.192,381.639,342.854,377.98,351.13z"/>
			<path style="fill:#263238;stroke:#263238;stroke-linecap:round;stroke-linejoin:round;stroke-miterlimit:10;" d="
				M351.255,409.551l13.863-5.071c0,0,3.124-5.189,5.953-10.157l-16.405,4.687C352.99,404.145,351.255,409.551,351.255,409.551z"/>
		</g>
		<g>
			<path style="fill:#92E3A9;stroke:#263238;stroke-linecap:round;stroke-linejoin:round;stroke-miterlimit:10;" d="
				M456.446,299.227l-11.582,49.323l-34.507,15.273l5.9,13.63c0,0,46.135-13.365,48.944-15.14c2.808-1.776,7.091-5.934,7.724-7.812
				c0.633-1.878,4.741-37.109,4.741-37.109l-20.989-23.059L456.446,299.227z"/>
			<path style="fill:none;stroke:#263238;stroke-linecap:round;stroke-linejoin:round;stroke-miterlimit:10;" d="M444.863,348.55
				c0,0,4.728,3.765,13.429,4.173"/>
			<path style="fill:none;stroke:#263238;stroke-linecap:round;stroke-linejoin:round;stroke-miterlimit:10;" d="M462.377,348.513
				c2.109-0.029,3.955-0.18,5.13-0.534"/>
			<path style="fill:none;stroke:#263238;stroke-linecap:round;stroke-linejoin:round;stroke-miterlimit:10;" d="M447.361,347.577
				c0,0,5.287,0.621,10.615,0.854"/>
			<path style="fill:none;stroke:#263238;stroke-linecap:round;stroke-linejoin:round;stroke-miterlimit:10;" d="M442.225,352.513
				c0,0,10.077,5.923,16.874,6.243"/>
		</g>
		<g>
			<path style="fill:#FFFFFF;stroke:#263238;stroke-linecap:round;stroke-linejoin:round;stroke-miterlimit:10;" d="
				M410.169,251.818c0,0,1.555,1.708,1.894,6.084c0.339,4.376-0.524,11.148,1.898,11.806c2.421,0.659,6.823-0.224,6.823-0.224
				s6.04,10.639,10.96,10.325c4.92-0.314,10.821-4.124,10.821-4.124l10.493,8.668l21.363-19.706l-25.04-41.234
				c0,0-32.102,10.482-36.5,17.087C408.483,247.106,410.169,251.818,410.169,251.818z"/>
			<path style="fill:#92E3A9;stroke:#263238;stroke-linecap:round;stroke-linejoin:round;stroke-miterlimit:10;" d="
				M457.765,276.944c0,0-6.243,16.874-4.298,21.87c1.945,4.996,13.613,29.252,23.54,44.161
				c9.927,14.909,15.305,22.246,15.305,22.246l-7.801,9.443c0,0,23.259,9.54,25.421,9.914c2.162,0.374,7.027-4.575,7.027-4.575
				l0.301,5.192c0,0-1.538,3.743,16.093-0.334c17.631-4.077,34.626-11.998,36.369-20.091c1.743-8.093,4.827-4.133-0.852-16.662
				c-5.679-12.529-18.376-26.478-27.87-33.192c-9.495-6.714-8.87-2.597-18.045-16.108c-9.175-13.511-26.031-31.743-34.073-34.573
				c-8.042-2.83-10.697-4.318-20.741,0.661C458.097,269.875,457.765,276.944,457.765,276.944z"/>
			<path style="fill:#92E3A9;stroke:#263238;stroke-linecap:round;stroke-linejoin:round;stroke-miterlimit:10;" d="
				M457.966,266.871l-11.588,20.438l2.905,7.766c0,0,20.102-27.668,20.697-28.73C470.576,265.284,457.966,266.871,457.966,266.871z"
				/>
			<path style="fill:#263238;stroke:#263238;stroke-linecap:round;stroke-linejoin:round;stroke-miterlimit:10;" d="
				M440.461,245.066l-2.15-0.646l-10.963,1.331c-0.006-0.009-7.011,1.136-7.022,1.136c-3.098,0.103-7.607,2.871-10.157,4.931
				c0,0,0.454,1.929,2.022,3.365c1.568,1.436,5.977,2.798,9.232,0.706c1.795-1.154,3.653-2.909,5.091-3.977L440.461,245.066z"/>
			<path style="fill:#263238;stroke:#263238;stroke-linecap:round;stroke-linejoin:round;stroke-miterlimit:10;" d="
				M441.999,241.324c0,0-0.754,16.042,2.602,20.015c3.356,3.973,10.867,6.506,10.777,8.409c-0.089,1.903-5.447,5.739-3.179,9.661
				c2.268,3.921,5.662,7.078,5.662,7.078s-6.768,4.859-5.367,9.83c1.401,4.971,5.922,7.363,5.922,7.363s-5.927,4.354-5.057,9.027
				c0.87,4.673,4.524,8.115,4.744,9.215c0.221,1.1,0.752,1.398-1.381,6.203c-2.133,4.805-4.513,9.053-4.513,9.053
				s1.827,1.721,5.349,2.159c3.522,0.438,7.754-2.633,7.754-2.633s-1.984-4.181-2.102-7.456c-0.119-3.276-0.004-5.723-0.004-5.723
				s0.336-1.347,2.987-5.582c2.652-4.235,0.031-12.261,0.031-12.261s3.505-5.013,3.4-8.56c-0.106-3.547-3.67-8.892-3.67-8.892
				s3.08-1.763,4.878-5.221c1.797-3.458,0.044-12.533,0.044-12.533s0.995-3.768,5.732-5.998c4.737-2.23,12.12,3.022,12.916-8.113
				c0.796-11.135-6.409-20.193-12.199-24.553s-7.617-6.08-12.332-10.117C460.278,217.658,442.833,229.373,441.999,241.324z"/>
			<path style="fill:none;stroke:#263238;stroke-linecap:round;stroke-linejoin:round;stroke-miterlimit:10;" d="M438.503,240.342
				c0,0,3.81,46.503,6.35,50.438c2.54,3.934,1.922-11.9,1.922-11.9"/>
			<path style="fill:none;stroke:#263238;stroke-linecap:round;stroke-linejoin:round;stroke-miterlimit:10;" d="M425.211,268.057
				c0,0,4.414-1.155,6.276-5.973"/>
			<g>
				<path style="fill:#92E3A9;stroke:#263238;stroke-linecap:round;stroke-linejoin:round;stroke-miterlimit:10;" d="
					M404.191,236.377c0,0-3.879,11.297-10.285,15.3c-6.406,4.004-9.859,6.233-2.723,7.046s19.97-7.671,25.854-10.742
					c5.884-3.072,25.838-0.221,31.879-6.633c6.041-6.412,6.265-11.185,15.4-12.19c9.135-1.006,16.86-2.556,20.947-8.103
					c4.087-5.547,5.833-12.161,5.833-12.161l-27.837,2.04c0,0-11.899-19.106-20.467-19.986c-8.568-0.881-28.7,11.235-38.472,17.099
					C401.267,209.877,400.053,232.834,404.191,236.377z"/>
				
					<line style="fill:none;stroke:#263238;stroke-linecap:round;stroke-linejoin:round;stroke-miterlimit:10;" x1="404.191" y1="236.377" x2="458.306" y2="212.272"/>
				
					<line style="fill:none;stroke:#263238;stroke-linecap:round;stroke-linejoin:round;stroke-miterlimit:10;" x1="428.264" y1="222.081" x2="450.336" y2="212.272"/>
			</g>
		</g>
		<g>
			<path style="fill:#C7C7C7;stroke:#263238;stroke-linecap:round;stroke-linejoin:round;stroke-miterlimit:10;" d="
				M406.799,410.526c0,0-2.609,9.142-4.589,10.684c-1.98,1.542-34.531-1.622-34.531-1.622l4.445-13.416
				c0,0,25.891-5.868,29.179-6.259c3.288-0.391,5.723-0.004,5.723-0.004L406.799,410.526z"/>
			<path style="fill:#263238;stroke:#263238;stroke-linecap:round;stroke-linejoin:round;stroke-miterlimit:10;" d="M402.21,421.21
				c1.496-1.165,3.351-6.667,4.168-9.288c-9.215-2.044-38.699,7.665-38.699,7.665S400.23,422.752,402.21,421.21z"/>
			<path style="fill:#263238;stroke:#263238;stroke-linecap:round;stroke-linejoin:round;stroke-miterlimit:10;" d="
				M406.893,406.135l0.133-6.226c0,0-2.434-0.387-5.723,0.004c-3.288,0.391-29.179,6.259-29.179,6.259l34.608-0.009L406.893,406.135
				z"/>
		</g>
		<g>
			<path style="fill:#FFFFFF;stroke:#263238;stroke-linecap:round;stroke-linejoin:round;stroke-miterlimit:10;" d="
				M433.511,392.978c0,0-14.423-0.405-17.958-0.571c-3.535-0.166-8.115,4.524-9.797,5.535s-4.763,2.774-4.296,4.431
				c0.467,1.657,0.922,3.586,1.737,3.624s3.535,0.166,3.535,0.166s-1.122,6.487-0.073,7.354c1.049,0.867,3.471,1.526,5.374,1.615
				c1.903,0.089,3.08-1.763,3.909-1.996c0.828-0.234,9.606-1.456,11.314-3.011c1.708-1.555,4.308-4.702,4.308-4.702l4.478-2.515
				L433.511,392.978z"/>
			
				<line style="fill:#FFFFFF;stroke:#263238;stroke-linecap:round;stroke-linejoin:round;stroke-miterlimit:10;" x1="406.732" y1="406.163" x2="407.998" y2="402.407"/>
		</g>
		<g>
			<path style="fill:#92E3A9;stroke:#263238;stroke-linecap:round;stroke-linejoin:round;stroke-miterlimit:10;" d="M470.26,277.804
				c0,0-8.349,3.695-9.263,11.555c-0.914,7.859,3.613,21.697,5.197,28.584c1.584,6.887,10.803,48.467,10.803,48.467
				s-1.67,0.739-2.018,2.358c-0.349,1.619-0.349,1.619-0.349,1.619s-2.719-0.128-3.586,0.921c-0.867,1.049-0.867,1.049-0.867,1.049
				l-39.916,20.197l5.33,14.148c0,0,51.327-13.666,59.883-15.989c8.556-2.323,11.378-4.37,12.19-10.055s-0.46-30.814-1.58-41.766
				c-1.12-10.953-5.396-35.951-5.396-35.951"/>
			<g>
				<path style="fill:none;stroke:#263238;stroke-linecap:round;stroke-linejoin:round;stroke-miterlimit:10;" d="M476.507,371.019
					c0,0,7.991,3.918,12.069,4.109"/>
				<path style="fill:none;stroke:#263238;stroke-linecap:round;stroke-linejoin:round;stroke-miterlimit:10;" d="M479.405,367.34
					c0,0,13.931-0.708,17.542-2.173"/>
				<path style="fill:none;stroke:#263238;stroke-linecap:round;stroke-linejoin:round;stroke-miterlimit:10;" d="M492.893,357.934
					c1.637-1.124,3-2.218,3.724-3.138"/>
				<path style="fill:none;stroke:#263238;stroke-linecap:round;stroke-linejoin:round;stroke-miterlimit:10;" d="M480.608,364.944
					c0,0,4.759-2.348,9.177-5.02"/>
			</g>
		</g>
		<g>
			<path style="fill:none;stroke:#263238;stroke-linecap:round;stroke-linejoin:round;stroke-miterlimit:10;" d="M525.092,339.491
				c2.356-1.486,4.327-2.841,5.395-3.813"/>
			<path style="fill:none;stroke:#263238;stroke-linecap:round;stroke-linejoin:round;stroke-miterlimit:10;" d="M507.489,349.585
				c0,0,6.564-3.512,12.806-7.184"/>
			<path style="fill:none;stroke:#263238;stroke-linecap:round;stroke-linejoin:round;stroke-miterlimit:10;" d="M507.608,352.86
				c0,0,14.823-2.301,24.234-5.401"/>
			<path style="fill:none;stroke:#263238;stroke-linecap:round;stroke-linejoin:round;stroke-miterlimit:10;" d="M534.645,361.201
				c2.004,0.124,3.809,0.135,5.271-0.01"/>
			<path style="fill:none;stroke:#263238;stroke-linecap:round;stroke-linejoin:round;stroke-miterlimit:10;" d="M507.429,356.667
				c0,0,12.788,3.006,23.181,4.174"/>
		</g>
		<path style="fill:#FFFFFF;stroke:#263238;stroke-linecap:round;stroke-linejoin:round;stroke-miterlimit:10;" d="M367.312,366.318
			c0,0-2.312,1.913-2.631,3.507c-0.319,1.594,0.08,6.935,0.08,8.37c0,1.435,1.276,1.674,1.833,0.558
			c0.558-1.116,0.558-2.232,1.515-6.855C369.066,367.275,368.428,365.043,367.312,366.318z"/>
		<path style="fill:#FFFFFF;stroke:#263238;stroke-linecap:round;stroke-linejoin:round;stroke-miterlimit:10;" d="M370.979,363.21
			c0,0-3.667,1.036-4.305,2.152c-0.638,1.116-0.319,8.131,0,9.327c0.319,1.196,1.913,1.355,2.71-0.08
			C370.182,373.174,371.935,362.731,370.979,363.21z"/>
		<path style="fill:#FFFFFF;stroke:#263238;stroke-linecap:round;stroke-linejoin:round;stroke-miterlimit:10;" d="M374.166,362.345
			c0,0-3.612-2.472-4.133-0.65c-0.072,0.254-0.18,0.648-0.31,1.142c-0.802,3.055-2.445,9.902-1.773,10.574
			c0.781,0.781,1.302,0.26,2.343-1.302C371.335,370.547,374.166,362.345,374.166,362.345z"/>
		<path style="fill:#FFFFFF;stroke:#263238;stroke-linecap:round;stroke-linejoin:round;stroke-miterlimit:10;" d="M387.575,373.108
			c0,0-11.692-0.549-12.792-0.329c-1.1,0.221-5.85,2.723-7.792,3.449c-1.942,0.726-1.241,3.212,0.378,3.56
			c1.619,0.349,8.259-1.792,8.259-1.792s4.274,1.836,6.98,2.235c2.706,0.4,7.018,1.42,10.808-3.852"/>
	</g>
</g>
<g id="Vessels">
	<g>
		<polygon style="fill:#C7C7C7;stroke:#263238;stroke-linecap:round;stroke-linejoin:round;stroke-miterlimit:10;" points="
			305.411,435.968 276.405,422.825 256.464,416.027 253.744,409.228 212.502,386.114 192.044,383.557 189.977,382.081 
			186.763,382.897 168.993,380.676 171.214,386.846 151.505,391.851 130.633,396.711 114.263,396.711 108.147,401.622 
			107.537,405.897 91.66,407.118 61.737,421.163 60.516,429.102 51.966,433.987 39.142,451.697 285.241,451.697 274.147,443.487 		
			"/>
		<g>
			<path style="fill:#92E3A9;stroke:#263238;stroke-linecap:round;stroke-linejoin:round;stroke-miterlimit:10;" d="
				M237.452,348.086l8.515-12.473l-22.751-15.531l-8.515,12.473c-18.183-5.211-38.638,1.715-50.121,18.536
				c-14.258,20.887-27.233,75.403-6.835,89.327c20.397,13.924,66.443-18.016,80.701-38.903
				C249.928,384.695,248.928,363.122,237.452,348.086z"/>
			
				<line style="fill:#C7C7C7;stroke:#263238;stroke-linecap:round;stroke-linejoin:round;stroke-miterlimit:10;" x1="230.495" y1="359.704" x2="241.723" y2="367.368"/>
			
				<line style="fill:#C7C7C7;stroke:#263238;stroke-linecap:round;stroke-linejoin:round;stroke-miterlimit:10;" x1="202.722" y1="340.745" x2="226.95" y2="357.284"/>
			
				<line style="fill:#C7C7C7;stroke:#263238;stroke-linecap:round;stroke-linejoin:round;stroke-miterlimit:10;" x1="192.971" y1="334.089" x2="198.585" y2="337.921"/>
			
				<line style="fill:#C7C7C7;stroke:#263238;stroke-linecap:round;stroke-linejoin:round;stroke-miterlimit:10;" x1="236.052" y1="368.695" x2="210.347" y2="351.148"/>
			
				<line style="fill:#C7C7C7;stroke:#263238;stroke-linecap:round;stroke-linejoin:round;stroke-miterlimit:10;" x1="244.03" y1="374.141" x2="239.893" y2="371.318"/>
			
				<line style="fill:#C7C7C7;stroke:#263238;stroke-linecap:round;stroke-linejoin:round;stroke-miterlimit:10;" x1="199.855" y1="348.75" x2="230.584" y2="369.727"/>
			
				<line style="fill:#C7C7C7;stroke:#263238;stroke-linecap:round;stroke-linejoin:round;stroke-miterlimit:10;" x1="185.969" y1="339.271" x2="195.719" y2="345.927"/>
			
				<line style="fill:#C7C7C7;stroke:#263238;stroke-linecap:round;stroke-linejoin:round;stroke-miterlimit:10;" x1="197.234" y1="352.591" x2="238.894" y2="381.031"/>
			
				<line style="fill:#C7C7C7;stroke:#263238;stroke-linecap:round;stroke-linejoin:round;stroke-miterlimit:10;" x1="218.263" y1="371.278" x2="178.375" y2="344.049"/>
			
				<line style="fill:#C7C7C7;stroke:#263238;stroke-linecap:round;stroke-linejoin:round;stroke-miterlimit:10;" x1="239.831" y1="386.002" x2="222.104" y2="373.9"/>
			
				<line style="fill:#C7C7C7;stroke:#263238;stroke-linecap:round;stroke-linejoin:round;stroke-miterlimit:10;" x1="178.52" y1="348.913" x2="188.27" y2="355.569"/>
			
				<line style="fill:#C7C7C7;stroke:#263238;stroke-linecap:round;stroke-linejoin:round;stroke-miterlimit:10;" x1="192.299" y1="359.185" x2="240.459" y2="392.062"/>
		</g>
		<path style="fill:#9E9E9E;stroke:#263238;stroke-linecap:round;stroke-linejoin:round;stroke-miterlimit:10;" d="M425.632,436.741
			c0,0-1.303-0.599-3.566-1.642c-13.976-6.446-64.584-29.871-71.215-34.162c-7.705-4.985-16.316-11.784-21.754-12.237
			c-5.439-0.453-23.114,6.798-23.114,6.798s-4.985,12.237-5.892,13.596c-0.906,1.36-4.985,7.251-4.985,7.251
			s-4.532,5.439-5.892,5.892c-1.36,0.453-22.661,16.769-22.661,16.769l-7.705,4.532l-19.488-5.439l-33.538-37.164l-40.789-24.02
			c0,0-16.769,4.079-19.035,5.892c-2.266,1.813-5.439,5.439-5.439,5.439l-8.611,3.173l-19.488,26.286l-12.237,9.517l-22.661,13.596
			l-16.316,10.877h393.844l-9.971-8.158L425.632,436.741z"/>
		<g>
			<path style="fill:#92E3A9;stroke:#263238;stroke-linecap:round;stroke-linejoin:round;stroke-miterlimit:10;" d="
				M320.761,367.568l-6.373-28.411l-24.66,8.493l12.474,26.309c-10.727,8.883-14.963,25.58-9.421,41.669
				c6.857,19.91,26.086,31.342,42.948,25.534c16.862-5.808,24.972-26.656,18.115-46.565
				C348.303,378.508,334.683,367.961,320.761,367.568z"/>
			<polyline style="fill:none;stroke:#263238;stroke-linecap:round;stroke-linejoin:round;stroke-miterlimit:10;" points="
				305.774,342.642 305.774,346.219 307.563,349.797 309.709,352.658 309.351,360.529 309.351,365.179 312.571,371.261 
				311.14,375.196 310.425,378.774 310.782,381.636 			"/>
			<polyline style="fill:none;stroke:#263238;stroke-linecap:round;stroke-linejoin:round;stroke-miterlimit:10;" points="
				309.709,352.658 311.14,348.366 312.213,343.357 314.389,339.157 			"/>
		</g>
		<path style="fill:#C7C7C7;stroke:#263238;stroke-linecap:round;stroke-linejoin:round;stroke-miterlimit:10;" d="M274.249,448.648
			l5.496-4.885l16.488-7.939c0,0,4.885-2.443,4.885-6.107s2.443-4.885,2.443-4.885s14.045,2.443,25.648-6.107
			c11.603-8.549,17.709-26.869,20.763-23.816c3.053,3.053,27.48,19.541,27.48,19.541s17.709,17.709,19.541,18.32
			c1.832,0.611,7.939,6.107,7.939,6.107l-10.381,4.275l-13.435-1.832l-26.869-9.16l-4.275,8.549l-24.427,6.717l-24.427-1.221
			l-19.65,5.474l-13.137-0.626L274.249,448.648z"/>
		<polygon style="fill:#C7C7C7;stroke:#263238;stroke-linecap:round;stroke-linejoin:round;stroke-miterlimit:10;" points="
			165.94,381.901 149.062,401.016 150.283,414.45 156.39,421.778 153.337,430.938 121.582,440.709 105.705,445.594 89.217,450.48 
			61.247,451.697 112.461,417.706 131.949,391.419 140.56,388.246 145.998,382.808 165.033,376.916 		"/>
		
			<line style="fill:#C7C7C7;stroke:#263238;stroke-linecap:round;stroke-linejoin:round;stroke-miterlimit:10;" x1="153.337" y1="430.938" x2="205.243" y2="451.09"/>
	</g>
</g>
<g id="Floor">
	
		<line style="fill:#FFFFFF;stroke:#263238;stroke-linecap:round;stroke-linejoin:round;stroke-miterlimit:10;" x1="739.09" y1="451.697" x2="23.741" y2="451.697"/>
</g>
</svg>
