<?xml version="1.0" encoding="utf-8"?>
<!-- Generator: Adobe Illustrator 27.5.0, SVG Export Plug-In . SVG Version: 6.00 Build 0)  -->
<svg version="1.1" xmlns="http://www.w3.org/2000/svg" xmlns:xlink="http://www.w3.org/1999/xlink" x="0px" y="0px"
	 viewBox="0 0 500 500" style="enable-background:new 0 0 500 500;" xml:space="preserve">
<g id="Background_Simple">
	<g>
		<path style="fill:#C6FF00;" d="M410.205,288.082c7.168-59.187-27.56-135.616-63.565-166.082c-65-55-119-41-161-18
			c-42,23-48,93-77,126s-64,84-20,124s98,9,144,4c46-5,107,13,140.001-7.001C395.684,337.033,407.037,314.242,410.205,288.082z"/>
		<path style="opacity:0.7;fill:#FFFFFF;" d="M410.205,288.082c7.168-59.187-27.56-135.616-63.565-166.082c-65-55-119-41-161-18
			c-42,23-48,93-77,126s-64,84-20,124s98,9,144,4c46-5,107,13,140.001-7.001C395.684,337.033,407.037,314.242,410.205,288.082z"/>
	</g>
</g>
<g id="Shadow">
	<g>
		<ellipse style="fill:#C6FF00;" cx="204.14" cy="398.5" rx="85.5" ry="16.5"/>
		<ellipse style="opacity:0.5;fill:#FFFFFF;" cx="204.14" cy="398.5" rx="85.5" ry="16.5"/>
	</g>
</g>
<g id="Plants">
	<g>
		<g>
			<g>
				<path style="fill:#C6FF00;" d="M330.08,261.728c0.044,0.005-0.542-2.898-0.599-3.077c-0.671-2.071-3.186-5.677-5.623-5.673
					c-1.756,0.003-2.946,1.602-2.773,3.277c0.177,1.712,1.714,3.171,3.105,4.014C325.822,261.258,330.077,261.728,330.08,261.728z"
					/>
				<path style="fill:#C6FF00;" d="M334.8,242.202c-2.294,0.824-3.435,5.069-3.364,7.245c0.007,0.188,0.441,3.118,0.481,3.098
					c0,0,0.037-0.019,0.046-0.023c-0.185,0.669-0.376,1.388-0.569,2.178c-0.344,1.462-0.72,3.117-1.008,4.945
					c-0.292,1.826-0.558,3.819-0.649,5.944c-0.094,2.129-0.084,4.374,0.226,6.685c0.003,0.026,0.01,0.053,0.014,0.079
					c-0.3-0.648-1.201-2.431-1.286-2.561c-1.194-1.82-4.572-4.635-6.922-3.987c-1.693,0.467-2.418,2.323-1.809,3.894
					c0.622,1.604,2.491,2.606,4.055,3.051c1.763,0.502,5.695-0.091,6.008-0.139c0.315,2.199,0.817,4.429,1.449,6.658
					c0.36,1.275,0.762,2.548,1.182,3.819c-0.278-0.552-0.53-1.043-0.573-1.108c-1.195-1.82-4.572-4.635-6.922-3.987
					c-1.693,0.467-2.418,2.322-1.809,3.893c0.622,1.605,2.491,2.606,4.055,3.051c1.587,0.451,4.949,0.013,5.837-0.115
					c0.166,0.486,0.326,0.973,0.494,1.458c0.805,2.329,1.619,4.649,2.347,6.949c0.257,0.81,0.48,1.618,0.707,2.425
					c-0.247-0.49-0.46-0.9-0.499-0.959c-1.194-1.82-4.572-4.635-6.922-3.987c-1.693,0.467-2.418,2.323-1.809,3.894
					c0.622,1.604,2.491,2.606,4.055,3.051c1.514,0.431,4.621,0.054,5.677-0.093c0.207,0.834,0.415,1.668,0.578,2.485
					c0.099,0.56,0.232,1.093,0.3,1.662c0.079,0.561,0.157,1.117,0.234,1.667c0.11,1.066,0.23,2.164,0.311,3.206
					c0.062,0.724,0.107,1.416,0.156,2.112c-0.246-0.81-0.762-2.385-0.82-2.512c-0.601-1.316-2.09-3.206-3.73-4.247
					c-0.088-0.195-0.192-0.381-0.315-0.557c-0.967-1.38-2.912-1.809-4.242-0.661c-1.845,1.593-1.384,5.965-0.536,7.97
					c0.05,0.118,0.737,1.341,1.182,2.105c-0.33-0.409-0.646-0.81-0.992-1.227c-0.677-0.829-1.377-1.637-2.127-2.51
					c-0.377-0.408-0.758-0.821-1.142-1.237c-0.372-0.421-0.82-0.819-1.231-1.234c-0.976-0.942-2.01-1.851-3.072-2.742
					c0.725-0.595,3.269-2.743,4-4.204c0.728-1.453,1.252-3.508,0.49-5.05c-0.746-1.511-2.604-2.23-4.093-1.297
					c-2.065,1.295-2.272,5.687-1.737,7.797c0.033,0.132,0.588,1.602,0.908,2.405c-0.643-0.531-1.282-1.064-1.949-1.58
					c-1.927-1.49-3.924-2.938-5.91-4.391c-0.609-0.445-1.209-0.895-1.813-1.344c0.26-0.209,3.339-2.698,4.159-4.333
					c0.728-1.453,1.252-3.508,0.49-5.051c-0.746-1.511-2.605-2.23-4.093-1.297c-2.066,1.295-2.272,5.687-1.737,7.797
					c0.04,0.159,0.841,2.274,1.071,2.802c-1.328-0.989-2.643-1.986-3.899-3.022c-1.735-1.427-3.358-2.923-4.824-4.49
					c0.121-0.097,3.347-2.68,4.186-4.355c0.728-1.453,1.252-3.508,0.49-5.051c-0.746-1.511-2.605-2.23-4.093-1.297
					c-2.066,1.295-2.272,5.687-1.737,7.796c0.035,0.139,0.644,1.752,0.951,2.512c-0.065,0.041-0.053,0.033-0.118,0.074
					c-1.55-1.697-2.838-3.535-3.958-5.316c-0.651-1.03-1.216-2.051-1.742-3.056c0.65-0.419,3.599-2.37,4.522-3.794
					c0.883-1.365,1.63-3.349,1.041-4.966c-0.576-1.583-2.344-2.503-3.926-1.738c-2.195,1.06-2.882,5.403-2.582,7.559
					c0.016,0.117,0.314,1.291,0.543,2.143c-0.231-0.457-0.478-0.925-0.69-1.368c-0.802-1.66-1.434-3.229-1.983-4.624
					c-0.305-0.796-0.566-1.521-0.802-2.202c0.423-0.744,2.091-3.766,2.25-5.424c0.155-1.618-0.097-3.723-1.364-4.888
					c-1.241-1.14-3.234-1.141-4.285,0.266c-1.459,1.953-0.069,6.123,1.191,7.899c0.109,0.153,2.087,2.357,2.11,2.318
					c0,0,0.021-0.036,0.026-0.045c0.214,0.66,0.452,1.365,0.727,2.131c0.519,1.409,1.119,2.997,1.888,4.681
					c0.764,1.685,1.641,3.493,2.738,5.315c1.097,1.827,2.343,3.694,3.876,5.451c0.017,0.02,0.038,0.038,0.055,0.058
					c-0.608-0.375-2.343-1.365-2.485-1.426c-2-0.859-6.37-1.344-7.973,0.493c-1.155,1.324-0.736,3.271,0.639,4.246
					c1.404,0.995,3.515,0.799,5.065,0.308c1.748-0.554,4.7-3.218,4.934-3.431c1.476,1.66,3.124,3.243,4.882,4.754
					c1.003,0.865,2.041,1.705,3.092,2.533c-0.536-0.307-1.018-0.577-1.089-0.608c-2-0.859-6.37-1.343-7.973,0.493
					c-1.155,1.323-0.736,3.271,0.639,4.245c1.404,0.995,3.515,0.799,5.065,0.308c1.573-0.499,4.135-2.719,4.805-3.316
					c0.407,0.314,0.809,0.632,1.217,0.944c1.956,1.498,3.915,2.984,5.791,4.501c0.662,0.534,1.293,1.085,1.928,1.633
					c-0.477-0.272-0.88-0.497-0.945-0.525c-2-0.859-6.37-1.344-7.972,0.493c-1.155,1.323-0.736,3.271,0.639,4.246
					c1.404,0.995,3.515,0.799,5.065,0.308c1.501-0.476,3.884-2.504,4.684-3.209c0.632,0.581,1.267,1.162,1.854,1.754
					c0.391,0.413,0.797,0.784,1.167,1.22c0.376,0.425,0.747,0.845,1.116,1.262c0.679,0.828,1.386,1.678,2.028,2.503
					c0.451,0.57,0.871,1.121,1.295,1.676c-0.652-0.54-1.952-1.569-2.07-1.642c-1.847-1.152-6.092-2.293-7.955-0.72
					c-1.342,1.133-1.223,3.122-0.011,4.293c1.237,1.196,3.353,1.323,4.96,1.072c1.769-0.277,4.97-2.362,5.368-2.625
					c0.699,0.92,1.37,1.821,1.989,2.681c2.155,2.978,3.836,5.54,4.986,7.347c0.041,0.064,0.077,0.122,0.117,0.184l1.492-0.724
					c-0.077-0.116-0.152-0.23-0.235-0.354c-1.203-1.803-2.957-4.352-5.198-7.312c-0.706-0.937-1.479-1.924-2.282-2.93
					c0.207-0.226,1.376-1.52,2.315-2.866c1.712,0.671,5.279,0.698,5.74,0.698c0.075,1.153,0.138,2.274,0.18,3.334
					c0.154,3.672,0.143,6.737,0.106,8.878c-0.002,0.088-0.003,0.166-0.005,0.25l1.64-0.796c-0.016-2.128-0.081-5.005-0.298-8.408
					c-0.072-1.171-0.172-2.42-0.287-3.702c0.454-0.114,4.163-1.066,5.564-2.185c1.27-1.015,2.607-2.66,2.561-4.381
					c-0.045-1.685-1.431-3.116-3.173-2.892c-2.418,0.311-4.445,4.212-4.843,6.352c-0.024,0.126-0.125,1.524-0.175,2.408
					c-0.05-0.523-0.092-1.033-0.15-1.571c-0.107-1.065-0.245-2.125-0.39-3.267c-0.089-0.548-0.179-1.103-0.271-1.662
					c-0.078-0.557-0.232-1.135-0.346-1.709c-0.294-1.324-0.655-2.652-1.049-3.982c0.933-0.096,4.24-0.485,5.656-1.299
					c1.409-0.811,2.98-2.235,3.195-3.942c0.211-1.672-0.942-3.297-2.698-3.34c-2.437-0.059-5.032,3.49-5.75,5.545
					c-0.045,0.128-0.394,1.661-0.57,2.506c-0.243-0.797-0.482-1.594-0.754-2.393c-0.785-2.305-1.652-4.615-2.506-6.922
					c-0.262-0.707-0.515-1.414-0.77-2.121c0.332-0.031,4.273-0.408,5.859-1.32c1.41-0.81,2.98-2.235,3.195-3.942
					c0.211-1.672-0.943-3.297-2.698-3.339c-2.437-0.059-5.032,3.49-5.75,5.545c-0.054,0.155-0.553,2.361-0.653,2.928
					c-0.562-1.558-1.108-3.115-1.584-4.672c-0.66-2.147-1.188-4.291-1.547-6.405c0.155-0.014,4.27-0.389,5.894-1.323
					c1.409-0.811,2.979-2.235,3.195-3.943c0.211-1.672-0.942-3.297-2.698-3.339c-2.437-0.059-5.032,3.49-5.75,5.545
					c-0.047,0.135-0.429,1.815-0.592,2.618c-0.077-0.002-0.063-0.002-0.139-0.004c-0.357-2.27-0.416-4.513-0.369-6.616
					c0.025-1.218,0.117-2.381,0.233-3.51c0.774,0.009,4.309,0.009,5.864-0.67c1.49-0.651,3.207-1.894,3.609-3.567
					c0.393-1.639-0.575-3.381-2.315-3.616c-2.416-0.327-5.385,2.916-6.324,4.88c-0.051,0.107-0.45,1.25-0.729,2.087
					c0.06-0.509,0.112-1.035,0.179-1.522c0.247-1.827,0.585-3.484,0.897-4.95c0.184-0.832,0.367-1.581,0.546-2.279
					c0.764-0.387,3.821-1.988,4.869-3.283c1.022-1.264,1.973-3.159,1.558-4.829C338.114,242.708,336.453,241.609,334.8,242.202z"/>
				<path style="fill:#C6FF00;" d="M290.732,279.777c1.907-0.076,5.715-2.031,5.718-2.033c0.04-0.021-2.05-2.118-2.197-2.236
					c-1.702-1.357-5.789-2.978-7.82-1.629c-1.463,0.971-1.573,2.961-0.504,4.263C287.02,279.473,289.107,279.842,290.732,279.777z"
					/>
			</g>
			<g style="opacity:0.5;">
				<path style="fill:#FFFFFF;" d="M330.08,261.728c0.044,0.005-0.542-2.898-0.599-3.077c-0.671-2.071-3.186-5.677-5.623-5.673
					c-1.756,0.003-2.946,1.602-2.773,3.277c0.177,1.712,1.714,3.171,3.105,4.014C325.822,261.258,330.077,261.728,330.08,261.728z"
					/>
				<path style="fill:#FFFFFF;" d="M334.8,242.202c-2.294,0.824-3.435,5.069-3.364,7.245c0.007,0.188,0.441,3.118,0.481,3.098
					c0,0,0.037-0.019,0.046-0.023c-0.185,0.669-0.376,1.388-0.569,2.178c-0.344,1.462-0.72,3.117-1.008,4.945
					c-0.292,1.826-0.558,3.819-0.649,5.944c-0.094,2.129-0.084,4.374,0.226,6.685c0.003,0.026,0.01,0.053,0.014,0.079
					c-0.3-0.648-1.201-2.431-1.286-2.561c-1.194-1.82-4.572-4.635-6.922-3.987c-1.693,0.467-2.418,2.323-1.809,3.894
					c0.622,1.604,2.491,2.606,4.055,3.051c1.763,0.502,5.695-0.091,6.008-0.139c0.315,2.199,0.817,4.429,1.449,6.658
					c0.36,1.275,0.762,2.548,1.182,3.819c-0.278-0.552-0.53-1.043-0.573-1.108c-1.195-1.82-4.572-4.635-6.922-3.987
					c-1.693,0.467-2.418,2.322-1.809,3.893c0.622,1.605,2.491,2.606,4.055,3.051c1.587,0.451,4.949,0.013,5.837-0.115
					c0.166,0.486,0.326,0.973,0.494,1.458c0.805,2.329,1.619,4.649,2.347,6.949c0.257,0.81,0.48,1.618,0.707,2.425
					c-0.247-0.49-0.46-0.9-0.499-0.959c-1.194-1.82-4.572-4.635-6.922-3.987c-1.693,0.467-2.418,2.323-1.809,3.894
					c0.622,1.604,2.491,2.606,4.055,3.051c1.514,0.431,4.621,0.054,5.677-0.093c0.207,0.834,0.415,1.668,0.578,2.485
					c0.099,0.56,0.232,1.093,0.3,1.662c0.079,0.561,0.157,1.117,0.234,1.667c0.11,1.066,0.23,2.164,0.311,3.206
					c0.062,0.724,0.107,1.416,0.156,2.112c-0.246-0.81-0.762-2.385-0.82-2.512c-0.601-1.316-2.09-3.206-3.73-4.247
					c-0.088-0.195-0.192-0.381-0.315-0.557c-0.967-1.38-2.912-1.809-4.242-0.661c-1.845,1.593-1.384,5.965-0.536,7.97
					c0.05,0.118,0.737,1.341,1.182,2.105c-0.33-0.409-0.646-0.81-0.992-1.227c-0.677-0.829-1.377-1.637-2.127-2.51
					c-0.377-0.408-0.758-0.821-1.142-1.237c-0.372-0.421-0.82-0.819-1.231-1.234c-0.976-0.942-2.01-1.851-3.072-2.742
					c0.725-0.595,3.269-2.743,4-4.204c0.728-1.453,1.252-3.508,0.49-5.05c-0.746-1.511-2.604-2.23-4.093-1.297
					c-2.065,1.295-2.272,5.687-1.737,7.797c0.033,0.132,0.588,1.602,0.908,2.405c-0.643-0.531-1.282-1.064-1.949-1.58
					c-1.927-1.49-3.924-2.938-5.91-4.391c-0.609-0.445-1.209-0.895-1.813-1.344c0.26-0.209,3.339-2.698,4.159-4.333
					c0.728-1.453,1.252-3.508,0.49-5.051c-0.746-1.511-2.605-2.23-4.093-1.297c-2.066,1.295-2.272,5.687-1.737,7.797
					c0.04,0.159,0.841,2.274,1.071,2.802c-1.328-0.989-2.643-1.986-3.899-3.022c-1.735-1.427-3.358-2.923-4.824-4.49
					c0.121-0.097,3.347-2.68,4.186-4.355c0.728-1.453,1.252-3.508,0.49-5.051c-0.746-1.511-2.605-2.23-4.093-1.297
					c-2.066,1.295-2.272,5.687-1.737,7.796c0.035,0.139,0.644,1.752,0.951,2.512c-0.065,0.041-0.053,0.033-0.118,0.074
					c-1.55-1.697-2.838-3.535-3.958-5.316c-0.651-1.03-1.216-2.051-1.742-3.056c0.65-0.419,3.599-2.37,4.522-3.794
					c0.883-1.365,1.63-3.349,1.041-4.966c-0.576-1.583-2.344-2.503-3.926-1.738c-2.195,1.06-2.882,5.403-2.582,7.559
					c0.016,0.117,0.314,1.291,0.543,2.143c-0.231-0.457-0.478-0.925-0.69-1.368c-0.802-1.66-1.434-3.229-1.983-4.624
					c-0.305-0.796-0.566-1.521-0.802-2.202c0.423-0.744,2.091-3.766,2.25-5.424c0.155-1.618-0.097-3.723-1.364-4.888
					c-1.241-1.14-3.234-1.141-4.285,0.266c-1.459,1.953-0.069,6.123,1.191,7.899c0.109,0.153,2.087,2.357,2.11,2.318
					c0,0,0.021-0.036,0.026-0.045c0.214,0.66,0.452,1.365,0.727,2.131c0.519,1.409,1.119,2.997,1.888,4.681
					c0.764,1.685,1.641,3.493,2.738,5.315c1.097,1.827,2.343,3.694,3.876,5.451c0.017,0.02,0.038,0.038,0.055,0.058
					c-0.608-0.375-2.343-1.365-2.485-1.426c-2-0.859-6.37-1.344-7.973,0.493c-1.155,1.324-0.736,3.271,0.639,4.246
					c1.404,0.995,3.515,0.799,5.065,0.308c1.748-0.554,4.7-3.218,4.934-3.431c1.476,1.66,3.124,3.243,4.882,4.754
					c1.003,0.865,2.041,1.705,3.092,2.533c-0.536-0.307-1.018-0.577-1.089-0.608c-2-0.859-6.37-1.343-7.973,0.493
					c-1.155,1.323-0.736,3.271,0.639,4.245c1.404,0.995,3.515,0.799,5.065,0.308c1.573-0.499,4.135-2.719,4.805-3.316
					c0.407,0.314,0.809,0.632,1.217,0.944c1.956,1.498,3.915,2.984,5.791,4.501c0.662,0.534,1.293,1.085,1.928,1.633
					c-0.477-0.272-0.88-0.497-0.945-0.525c-2-0.859-6.37-1.344-7.972,0.493c-1.155,1.323-0.736,3.271,0.639,4.246
					c1.404,0.995,3.515,0.799,5.065,0.308c1.501-0.476,3.884-2.504,4.684-3.209c0.632,0.581,1.267,1.162,1.854,1.754
					c0.391,0.413,0.797,0.784,1.167,1.22c0.376,0.425,0.747,0.845,1.116,1.262c0.679,0.828,1.386,1.678,2.028,2.503
					c0.451,0.57,0.871,1.121,1.295,1.676c-0.652-0.54-1.952-1.569-2.07-1.642c-1.847-1.152-6.092-2.293-7.955-0.72
					c-1.342,1.133-1.223,3.122-0.011,4.293c1.237,1.196,3.353,1.323,4.96,1.072c1.769-0.277,4.97-2.362,5.368-2.625
					c0.699,0.92,1.37,1.821,1.989,2.681c2.155,2.978,3.836,5.54,4.986,7.347c0.041,0.064,0.077,0.122,0.117,0.184l1.492-0.724
					c-0.077-0.116-0.152-0.23-0.235-0.354c-1.203-1.803-2.957-4.352-5.198-7.312c-0.706-0.937-1.479-1.924-2.282-2.93
					c0.207-0.226,1.376-1.52,2.315-2.866c1.712,0.671,5.279,0.698,5.74,0.698c0.075,1.153,0.138,2.274,0.18,3.334
					c0.154,3.672,0.143,6.737,0.106,8.878c-0.002,0.088-0.003,0.166-0.005,0.25l1.64-0.796c-0.016-2.128-0.081-5.005-0.298-8.408
					c-0.072-1.171-0.172-2.42-0.287-3.702c0.454-0.114,4.163-1.066,5.564-2.185c1.27-1.015,2.607-2.66,2.561-4.381
					c-0.045-1.685-1.431-3.116-3.173-2.892c-2.418,0.311-4.445,4.212-4.843,6.352c-0.024,0.126-0.125,1.524-0.175,2.408
					c-0.05-0.523-0.092-1.033-0.15-1.571c-0.107-1.065-0.245-2.125-0.39-3.267c-0.089-0.548-0.179-1.103-0.271-1.662
					c-0.078-0.557-0.232-1.135-0.346-1.709c-0.294-1.324-0.655-2.652-1.049-3.982c0.933-0.096,4.24-0.485,5.656-1.299
					c1.409-0.811,2.98-2.235,3.195-3.942c0.211-1.672-0.942-3.297-2.698-3.34c-2.437-0.059-5.032,3.49-5.75,5.545
					c-0.045,0.128-0.394,1.661-0.57,2.506c-0.243-0.797-0.482-1.594-0.754-2.393c-0.785-2.305-1.652-4.615-2.506-6.922
					c-0.262-0.707-0.515-1.414-0.77-2.121c0.332-0.031,4.273-0.408,5.859-1.32c1.41-0.81,2.98-2.235,3.195-3.942
					c0.211-1.672-0.943-3.297-2.698-3.339c-2.437-0.059-5.032,3.49-5.75,5.545c-0.054,0.155-0.553,2.361-0.653,2.928
					c-0.562-1.558-1.108-3.115-1.584-4.672c-0.66-2.147-1.188-4.291-1.547-6.405c0.155-0.014,4.27-0.389,5.894-1.323
					c1.409-0.811,2.979-2.235,3.195-3.943c0.211-1.672-0.942-3.297-2.698-3.339c-2.437-0.059-5.032,3.49-5.75,5.545
					c-0.047,0.135-0.429,1.815-0.592,2.618c-0.077-0.002-0.063-0.002-0.139-0.004c-0.357-2.27-0.416-4.513-0.369-6.616
					c0.025-1.218,0.117-2.381,0.233-3.51c0.774,0.009,4.309,0.009,5.864-0.67c1.49-0.651,3.207-1.894,3.609-3.567
					c0.393-1.639-0.575-3.381-2.315-3.616c-2.416-0.327-5.385,2.916-6.324,4.88c-0.051,0.107-0.45,1.25-0.729,2.087
					c0.06-0.509,0.112-1.035,0.179-1.522c0.247-1.827,0.585-3.484,0.897-4.95c0.184-0.832,0.367-1.581,0.546-2.279
					c0.764-0.387,3.821-1.988,4.869-3.283c1.022-1.264,1.973-3.159,1.558-4.829C338.114,242.708,336.453,241.609,334.8,242.202z"/>
				<path style="fill:#FFFFFF;" d="M290.732,279.777c1.907-0.076,5.715-2.031,5.718-2.033c0.04-0.021-2.05-2.118-2.197-2.236
					c-1.702-1.357-5.789-2.978-7.82-1.629c-1.463,0.971-1.573,2.961-0.504,4.263C287.02,279.473,289.107,279.842,290.732,279.777z"
					/>
			</g>
		</g>
		<g>
			<g>
				<path style="fill:#C6FF00;" d="M312.975,327.478c0,0,11.557-27.865,18.029-26.653c6.472,1.212-11.094,44.422-11.094,44.422
					s20.34-38.365,34.208-38.365s-5.085,42.403-22.651,56.537c0,0,27.736-29.884,43.916-23.423
					c16.18,6.461-32.359,36.749-32.359,36.749s28.198-8.884,24.963-2.019c-3.236,6.865-12.019,8.077-12.019,8.077l31.897,1.615
					H276.918l24.963-2.423c0,0-25.887-12.923-18.953-18.173c6.934-5.25,22.189,6.057,22.189,6.057s-26.35-29.076-21.264-39.98
					c5.085-10.904,27.736,19.788,27.736,19.788s-18.491-39.172-14.793-46.037C300.494,296.786,312.975,327.478,312.975,327.478z"/>
				<path style="opacity:0.4;fill:#FFFFFF;" d="M312.975,327.478c0,0,11.557-27.865,18.029-26.653
					c6.472,1.212-11.094,44.422-11.094,44.422s20.34-38.365,34.208-38.365s-5.085,42.403-22.651,56.537
					c0,0,27.736-29.884,43.916-23.423c16.18,6.461-32.359,36.749-32.359,36.749s28.198-8.884,24.963-2.019
					c-3.236,6.865-12.019,8.077-12.019,8.077l31.897,1.615H276.918l24.963-2.423c0,0-25.887-12.923-18.953-18.173
					c6.934-5.25,22.189,6.057,22.189,6.057s-26.35-29.076-21.264-39.98c5.085-10.904,27.736,19.788,27.736,19.788
					s-18.491-39.172-14.793-46.037C300.494,296.786,312.975,327.478,312.975,327.478z"/>
			</g>
			<g>
				<path style="fill:none;stroke:#263238;stroke-linecap:round;stroke-linejoin:round;stroke-miterlimit:10;" d="M309.277,328.946
					c10.17,30.048,10.17,51.312,10.17,51.312s-12.019,0.462-24.5-8.783"/>
				<path style="fill:none;stroke:#263238;stroke-linecap:round;stroke-linejoin:round;stroke-miterlimit:10;" d="M314.362,345.126
					c0,0,2.311-11.094,8.321-26.349"/>
				<path style="fill:none;stroke:#263238;stroke-linecap:round;stroke-linejoin:round;stroke-miterlimit:10;" d="M344.41,327.56
					l-25.887,38.368c0,0-17.566-14.793-23.576-23.114"/>
				<path style="fill:none;stroke:#263238;stroke-linecap:round;stroke-linejoin:round;stroke-miterlimit:10;" d="M318.985,375.174
					c0,0,27.274-12.944,38.369-20.34"/>
			</g>
		</g>
	</g>
</g>
<g id="Character">
	<g>
		<g>
			<path style="fill:#263238;stroke:#263238;stroke-linecap:round;stroke-linejoin:round;stroke-miterlimit:10;" d="
				M137.051,271.177v17.333c0,0,2.765,26.428,7.246,51.83l-24.579,51.503l5.667,0.333c0,0,37.893-46.836,39.226-51.836
				c1.333-5-0.893-42.83-0.893-42.83l38.667,23.333l16.667,58.667l5.667-2.333c0,0-5.776-62.824-7-64.333
				c-18.551-22.872-44.667-38-44.667-38l-5.333-9.667L137.051,271.177z"/>
			
				<line style="fill:none;stroke:#FFFFFF;stroke-width:0.5;stroke-linecap:round;stroke-linejoin:round;stroke-miterlimit:10;" x1="164.382" y1="298.371" x2="166.81" y2="285.568"/>
			
				<line style="fill:none;stroke:#FFFFFF;stroke-width:0.5;stroke-linecap:round;stroke-linejoin:round;stroke-miterlimit:10;" x1="165.044" y1="295.722" x2="170.783" y2="282.919"/>
		</g>
		<path style="fill:#FFFFFF;stroke:#263238;stroke-linecap:round;stroke-linejoin:round;stroke-miterlimit:10;" d="M183.613,215.905
			c0,0-1.349,7.388,0.592,9.078c1.941,1.69,8.881,2.763,9.67-0.592c0.789-3.355-5.723-36.706-6.512-40.061
			c-0.789-3.355-3.158-1.381-3.947-0.395C182.627,184.923,183.613,215.905,183.613,215.905z"/>
		<g>
			<path style="fill:#FFFFFF;stroke:#263238;stroke-linecap:round;stroke-linejoin:round;stroke-miterlimit:10;" d="M149.184,203.68
				c0,0-21.685,8.74-28.387,11.717c-6.702,2.978-3.132,9.678-2.139,12.044c0.993,2.366,17.086,43.963,17.483,44.752
				c0.397,0.788,2.967,2.558,6.716,2.548c3.749-0.01,25.443-5.395,26.226-7.962s-0.609-6.708-0.609-6.708l-11.339-34.703
				c0,0,27.632,1.507,29.013,1.306c1.381-0.201,4.922-4.552,0.767-8.685c-4.155-4.133-30.223-11.17-31.607-12.35
				C153.922,204.457,151.55,202.884,149.184,203.68z"/>
			<path style="fill:#263238;" d="M137.16,217.377l5.724,5.151l6.868,38.349l7.441,5.151l1.431-11.161l-14.023-33.198
				c0,0,0-4.579,0-6.01c0-1.431,0.572-4.865-3.148-6.582C137.732,207.36,132.581,209.936,137.16,217.377z"/>
			<path style="fill:#FFFFFF;stroke:#263238;stroke-linecap:round;stroke-linejoin:round;stroke-miterlimit:10;" d="
				M183.021,211.564c0,0-3.552,0-4.736,7.302c-1.184,7.302,0.592,8.683,2.565,9.078c1.973,0.395,6.512,1.973,8.881-0.395
				c2.368-2.368,2.565-7.696,1.184-11.841C189.534,211.564,185.587,210.775,183.021,211.564z"/>
			<polygon style="fill:#FFFFFF;stroke:#263238;stroke-linecap:round;stroke-linejoin:round;stroke-miterlimit:10;" points="
				141.382,203.867 150.262,214.919 144.145,211.564 141.974,217.287 			"/>
			<polygon style="fill:#FFFFFF;stroke:#263238;stroke-linecap:round;stroke-linejoin:round;stroke-miterlimit:10;" points="
				142.961,197.947 141.777,218.076 133.291,208.998 131.317,196.566 			"/>
			<polygon style="fill:#FFFFFF;stroke:#263238;stroke-linecap:round;stroke-linejoin:round;stroke-miterlimit:10;" points="
				130.133,203.67 140.308,213.084 137.732,221.383 128.357,210.577 			"/>
		</g>
		<g>
			<g>
				<path style="fill:#263238;stroke:#263238;stroke-linecap:round;stroke-linejoin:round;stroke-miterlimit:10;" d="
					M221.488,265.868c-13.734,0-27.041-3.98-38.335-11.598c-14.599-9.846-24.101-24.554-26.756-41.414
					c-5.418-34.41,19.844-67.051,56.344-72.851l33.746-6.471l3.46,25.088l-32.78,5.891c-0.12,0.022-0.24,0.043-0.361,0.062
					c-22.982,3.59-39.002,23.519-35.711,44.423c3.283,20.847,24.555,34.916,47.46,31.43l34.489-6.546l4.68,24.46l-34.702,6.587
					c-0.134,0.026-0.268,0.049-0.403,0.07C228.898,265.582,225.177,265.868,221.488,265.868z"/>
			</g>
			<g>
				<path style="fill:#C6FF00;stroke:#263238;stroke-linecap:round;stroke-linejoin:round;stroke-miterlimit:10;" d="
					M220.719,263.177c-13.734,0-27.041-3.98-38.335-11.598c-14.599-9.846-24.101-24.554-26.756-41.414
					c-5.419-34.41,19.844-67.051,56.344-72.851l33.746-6.471l3.46,25.088l-32.78,5.891c-0.12,0.022-0.24,0.043-0.361,0.062
					c-22.982,3.59-39.002,23.519-35.711,44.423c3.283,20.847,24.555,34.916,47.46,31.43l34.489-6.546l4.68,24.46l-34.702,6.587
					c-0.134,0.026-0.269,0.049-0.403,0.07C228.129,262.89,224.408,263.177,220.719,263.177z"/>
				<path style="fill:#C6FF00;stroke:#263238;stroke-linecap:round;stroke-linejoin:round;stroke-miterlimit:10;" d="
					M215.439,259.972c-11.31-0.882-22.066-4.599-31.378-10.88c-6.491-4.377-11.923-9.761-16.127-15.888"/>
				<path style="fill:#C6FF00;stroke:#263238;stroke-linecap:round;stroke-linejoin:round;stroke-miterlimit:10;" d="
					M223.844,260.105c-1.044,0.048-2.086,0.072-3.125,0.072"/>
				<path style="fill:none;stroke:#263238;stroke-linecap:round;stroke-linejoin:round;stroke-miterlimit:10;" d="M200.195,164.05
					c-6.117,3.261-11.442,7.8-15.456,13.308c-6.368,8.737-8.988,19.185-7.377,29.417c1.967,12.492,9.842,22.843,20.85,28.849"/>
				<path style="fill:none;stroke:#263238;stroke-linecap:round;stroke-linejoin:round;stroke-miterlimit:10;" d="M166.09,171.302
					c9.361-15.871,26.04-27.797,46.352-31.025l30.736-5.892l2.634,19.104l-30.243,5.433c-2.714,0.424-5.37,1.074-7.937,1.932"/>
				<path style="fill:none;stroke:#263238;stroke-linecap:round;stroke-linejoin:round;stroke-miterlimit:10;" d="M162.22,179.09
					c0.596-1.457,1.251-2.89,1.961-4.297"/>
			</g>
			<g>
				<polygon style="fill:#FFFFFF;stroke:#263238;stroke-linecap:round;stroke-linejoin:round;stroke-miterlimit:10;" points="
					223.217,160.597 249.178,155.932 245.718,130.844 219.353,135.899 				"/>
				<polygon style="fill:#FFFFFF;stroke:#263238;stroke-linecap:round;stroke-linejoin:round;stroke-miterlimit:10;" points="
					266.954,255.652 262.274,231.192 235.072,236.355 238.924,260.972 				"/>
			</g>
		</g>
		<path style="fill:#FFFFFF;stroke:#263238;stroke-linecap:round;stroke-linejoin:round;stroke-miterlimit:10;" d="M143.875,254.337
			c0,0,36.448,2.106,38.243,1.804c1.794-0.301,7.445-6.329,8.866-7.045c1.421-0.716,4.274,1.409,6.016,2.094
			c1.743,0.684,3.174-0.229,3.299,1.161c0.125,1.39-0.891,1.929-2.862,1.826c-1.971-0.103-3.143-0.362-4.128-0.414
			c-0.985-0.052,2.065,2.084,4.7,4.594c2.635,2.509,4.762,3.411,4.109,4.563c-0.653,1.152-2.219,0.872-3.163,0.032
			c-0.944-0.84-3.703-0.984-5.871-1.098s-5.83-1.886-5.83-1.886s-4.211,1.163-15.36,2.753c-11.15,1.59-26.883,3.928-31.209,3.504
			c-4.325-0.424-7.179-6.304-7.179-6.304L143.875,254.337z"/>
		<g>
			<g>
				<path style="fill:#FFFFFF;stroke:#263238;stroke-linecap:round;stroke-linejoin:round;stroke-miterlimit:10;" d="
					M120.796,215.397c0,0-5.859,2.285-7.437,5.64c-1.579,3.355,0.197,8.88,2.565,13.222c2.368,4.342,16.774,27.036,16.774,27.036
					l8.683-7.894c0,0-7.894-24.865-8.88-27.036"/>
				<path style="fill:none;stroke:#263238;stroke-linecap:round;stroke-linejoin:round;stroke-miterlimit:10;" d="M123.029,223.602
					c0,0,3.749-0.395,6.315,2.171"/>
				<path style="fill:none;stroke:#263238;stroke-linecap:round;stroke-linejoin:round;stroke-miterlimit:10;" d="M131.515,221.826
					c0,0,2.96,0.592,3.947,7.104"/>
			</g>
			<path style="fill:#FFFFFF;stroke:#263238;stroke-linecap:round;stroke-linejoin:round;stroke-miterlimit:10;" d="
				M139.408,246.888c0,0-6.118,2.763-9.472,6.512c-3.355,3.749-2.96,4.933-0.789,7.302c2.171,2.368,3.552,3.552,4.934,2.565
				c1.381-0.987,10.657-7.104,11.249-8.683c0.592-1.579-1.381-7.499-2.763-8.091C141.185,245.902,139.408,246.888,139.408,246.888z"
				/>
		</g>
		<g>
			<path style="fill:#FFFFFF;stroke:#263238;stroke-linecap:round;stroke-linejoin:round;stroke-miterlimit:10;" d="M187.363,184.33
				c0,0,6.118-5.723,6.907-8.486c0.789-2.763-0.987-7.104-1.579-7.302c-0.592-0.197-1.184,0.987-1.184,2.566
				c0,0-1.776-2.171-1.973-0.592c-0.197,1.579-0.197,2.763-0.197,2.763s-1.776-1.974-2.171-0.592
				c-0.395,1.381,0.789,2.368,0.789,2.368s-2.565-1.973-2.565-0.592c0,1.382,1.184,2.566,1.184,2.566s-3.355,4.539-3.158,6.907
				c0.197,2.368,2.171,2.368,2.171,2.368"/>
			<path style="fill:none;stroke:#263238;stroke-linecap:round;stroke-linejoin:round;stroke-miterlimit:10;" d="M187.955,175.055
				c0,0,1.381,1.381,1.184,2.565"/>
			<path style="fill:none;stroke:#263238;stroke-linecap:round;stroke-linejoin:round;stroke-miterlimit:10;" d="M189.337,173.279
				c0,0,1.579,2.171,1.579,3.552"/>
			<path style="fill:none;stroke:#263238;stroke-linecap:round;stroke-linejoin:round;stroke-miterlimit:10;" d="M191.507,171.108
				c0,0,1.579,2.171,1.579,4.144"/>
		</g>
		<g>
			<path style="fill:#FFFFFF;stroke:#263238;stroke-linecap:round;stroke-linejoin:round;stroke-miterlimit:10;" d="
				M125.385,392.177c0,0,8,7.667,10.333,10c2.333,2.333,5.333,3.667,3,3.667s-7.333,0.667-12-0.667
				c-4.667-1.333-8.333-5.333-10-7.333c-1.667-2,3-6,3-6L125.385,392.177z"/>
			<path style="fill:#FFFFFF;stroke:#263238;stroke-linecap:round;stroke-linejoin:round;stroke-miterlimit:10;" d="
				M137.819,403.984c-3.72,0.583-9.178,0.191-12.622-0.958c-3.114-1.038-6.837-5.974-8.249-7.979
				c-0.584,1.002-0.858,2.042-0.229,2.797c1.667,2,5.333,6,10,7.333c4.667,1.333,9.667,0.667,12,0.667
				C140.357,405.844,139.363,405.184,137.819,403.984z"/>
		</g>
		<g>
			<path style="fill:#FFFFFF;stroke:#263238;stroke-linecap:round;stroke-linejoin:round;stroke-miterlimit:10;" d="
				M224.718,377.177c0,0,18,7.667,19.333,8c1.333,0.333,1.603,2.465-4.616,2.465c-2.667,0-12.724,0.655-15.057,0.655
				s-4.993,0.214-5.66-1.119c-0.667-1.333,0.333-7.667,0.333-7.667L224.718,377.177z"/>
			<path style="fill:#FFFFFF;stroke:#263238;stroke-linecap:round;stroke-linejoin:round;stroke-miterlimit:10;" d="
				M244.051,385.177c-0.013-0.003-0.037-0.011-0.052-0.016c-7.742,1.137-21.662,0.946-25.494,0.867
				c0.027,0.5,0.092,0.908,0.212,1.149c0.667,1.333,3.327,1.119,5.66,1.119s12.391-0.655,15.057-0.655
				C245.654,387.642,245.385,385.51,244.051,385.177z"/>
		</g>
		<polygon style="fill:#FFFFFF;stroke:#263238;stroke-linecap:round;stroke-linejoin:round;stroke-miterlimit:10;" points="
			140.308,213.084 141.777,218.076 138.877,217.091 		"/>
		<g>
			<g>
				<path style="fill:#FFFFFF;stroke:#263238;stroke-linecap:round;stroke-linejoin:round;stroke-miterlimit:10;" d="
					M142.566,170.319c0,0-1.184-3.552-6.118-3.947c-4.934-0.395-13.814,6.71-14.603,11.643c-0.789,4.934,6.512,18.156,8.683,20.129
					c2.171,1.973,20.524,1.381,21.116-1.184C152.236,194.395,146.513,177.818,142.566,170.319z"/>
				<path style="fill:none;stroke:#263238;stroke-linecap:round;stroke-linejoin:round;stroke-miterlimit:10;" d="M142.171,182.357
					c0,0,1.973,2.566,3.158,2.763c1.184,0.197,2.96-0.197,1.973,0.987c-0.987,1.184-4.342,1.973-4.342,1.973"/>
				<path style="fill:none;stroke:#263238;stroke-linecap:round;stroke-linejoin:round;stroke-miterlimit:10;" d="M142.961,191.435
					c0,0-4.342,0.987-6.315-2.171"/>
				
					<line style="fill:none;stroke:#263238;stroke-linecap:round;stroke-linejoin:round;stroke-miterlimit:10;" x1="137.435" y1="188.475" x2="135.659" y2="190.053"/>
				<path style="fill:none;stroke:#263238;stroke-linecap:round;stroke-linejoin:round;stroke-miterlimit:10;" d="M136.646,184.33
					c0,0,1.579-1.184,2.566-1.184"/>
				<path style="fill:none;stroke:#263238;stroke-linecap:round;stroke-linejoin:round;stroke-miterlimit:10;" d="M133.686,181.173
					c0,0,1.184-1.776,4.934-0.987"/>
				<path style="fill:none;stroke:#263238;stroke-linecap:round;stroke-linejoin:round;stroke-miterlimit:10;" d="M140.001,178.015
					c0,0-0.197-2.96,2.565-2.763"/>
				<path style="fill:#263238;" d="M144.882,180.733c0.313,0.696,0.325,1.368,0.027,1.503c-0.298,0.134-0.794-0.321-1.107-1.017
					c-0.313-0.696-0.325-1.368-0.027-1.503C144.073,179.582,144.569,180.037,144.882,180.733z"/>
			</g>
			<g>
				<path style="fill:#263238;stroke:#263238;stroke-linecap:round;stroke-linejoin:round;stroke-miterlimit:10;" d="
					M126.778,189.659c0,0,2.96-0.789,2.96-2.368c0-1.579-1.184-1.973-0.789-3.158s3.158-2.763,2.368-4.539
					c-0.789-1.776-4.736-1.776-4.342-3.157c0.395-1.381,13.617-4.736,14.604-8.881c0.987-4.144-3.355-9.275-6.71-9.078
					c-3.355,0.197-1.579,4.342-1.579,4.342s-9.867-2.96-11.841,0.789c-1.973,3.75,1.776,5.526,1.776,5.526s-6.907,3.158-7.499,7.894
					c-0.592,4.736,7.697,13.814,9.473,14.406C126.976,192.027,126.778,189.659,126.778,189.659z"/>
				<g>
					
						<path style="fill:none;stroke:#FFFFFF;stroke-width:0.5;stroke-linecap:round;stroke-linejoin:round;stroke-miterlimit:10;" d="
						M126.041,176.801c0,0-5.662,3.905-6.442,7.028"/>
					
						<path style="fill:none;stroke:#FFFFFF;stroke-width:0.5;stroke-linecap:round;stroke-linejoin:round;stroke-miterlimit:10;" d="
						M130.337,178.753c0,0-7.028,3.124-9.176,7.614"/>
				</g>
			</g>
			<path style="fill:#FFFFFF;stroke:#263238;stroke-linecap:round;stroke-linejoin:round;stroke-miterlimit:10;" d="
				M128.357,190.843c0,0-1.184-2.763-3.355-2.566c-2.171,0.197-1.579,3.355,0.592,5.92c2.171,2.566,4.736,0.789,4.934,0.197"/>
		</g>
	</g>
</g>
<g id="Emails">
	<g>
		<g>
			
				<rect x="302.435" y="180.391" style="fill:#FFFFFF;stroke:#263238;stroke-linecap:round;stroke-linejoin:round;stroke-miterlimit:10;" width="26.944" height="17.706"/>
			<polyline style="fill:none;stroke:#263238;stroke-linecap:round;stroke-linejoin:round;stroke-miterlimit:10;" points="
				302.435,180.391 315.907,189.244 329.379,180.391 			"/>
		</g>
		<g>
			
				<rect x="357.799" y="141.396" transform="matrix(0.9687 0.2481 -0.2481 0.9687 48.8817 -87.4104)" style="fill:#FFFFFF;stroke:#263238;stroke-linecap:round;stroke-linejoin:round;stroke-miterlimit:10;" width="26.944" height="17.706"/>
			<polyline style="fill:none;stroke:#263238;stroke-linecap:round;stroke-linejoin:round;stroke-miterlimit:10;" points="
				360.416,138.331 371.27,150.249 386.517,145.015 			"/>
		</g>
		<g>
			
				<rect x="342.465" y="232.063" transform="matrix(0.9687 0.2481 -0.2481 0.9687 70.8953 -80.7717)" style="fill:#FFFFFF;stroke:#263238;stroke-linecap:round;stroke-linejoin:round;stroke-miterlimit:10;" width="26.944" height="17.706"/>
			<polyline style="fill:none;stroke:#263238;stroke-linecap:round;stroke-linejoin:round;stroke-miterlimit:10;" points="
				345.083,228.997 355.937,240.916 371.184,235.682 			"/>
		</g>
		<g>
			
				<rect x="371.168" y="171.48" transform="matrix(0.9687 0.2481 -0.2481 0.9687 56.7629 -89.7863)" style="fill:#FFFFFF;stroke:#263238;stroke-linecap:round;stroke-linejoin:round;stroke-miterlimit:10;" width="26.944" height="17.706"/>
			<polyline style="fill:none;stroke:#263238;stroke-linecap:round;stroke-linejoin:round;stroke-miterlimit:10;" points="
				373.785,168.415 384.64,180.333 399.887,175.099 			"/>
		</g>
		<g>
			
				<rect x="346.469" y="192.166" transform="matrix(0.6401 0.7683 -0.7683 0.6401 283.9786 -204.1917)" style="fill:#FFFFFF;stroke:#263238;stroke-linecap:round;stroke-linejoin:round;stroke-miterlimit:10;" width="26.944" height="17.706"/>
			<polyline style="fill:none;stroke:#263238;stroke-linecap:round;stroke-linejoin:round;stroke-miterlimit:10;" points="
				358.119,185.002 359.94,201.019 375.366,205.702 			"/>
		</g>
		<g>
			
				<rect x="380.469" y="128.166" transform="matrix(0.6401 0.7683 -0.7683 0.6401 247.0447 -253.3463)" style="fill:#FFFFFF;stroke:#263238;stroke-linecap:round;stroke-linejoin:round;stroke-miterlimit:10;" width="26.944" height="17.706"/>
			<polyline style="fill:none;stroke:#263238;stroke-linecap:round;stroke-linejoin:round;stroke-miterlimit:10;" points="
				392.119,121.002 393.94,137.019 409.366,141.702 			"/>
		</g>
		<g>
			
				<rect x="377.802" y="206.832" transform="matrix(0.805 -0.5933 0.5933 0.805 -51.6579 274.2253)" style="fill:#FFFFFF;stroke:#263238;stroke-linecap:round;stroke-linejoin:round;stroke-miterlimit:10;" width="26.944" height="17.706"/>
			<polyline style="fill:none;stroke:#263238;stroke-linecap:round;stroke-linejoin:round;stroke-miterlimit:10;" points="
				375.177,216.553 391.274,215.685 396.865,200.566 			"/>
		</g>
		<g>
			
				<rect x="237.187" y="122.36" style="fill:#FFFFFF;stroke:#263238;stroke-linecap:round;stroke-linejoin:round;stroke-miterlimit:10;" width="26.944" height="17.706"/>
			<polyline style="fill:none;stroke:#263238;stroke-linecap:round;stroke-linejoin:round;stroke-miterlimit:10;" points="
				237.187,122.36 250.659,131.213 264.131,122.36 			"/>
		</g>
		<g>
			
				<rect x="260.776" y="124.286" transform="matrix(0.7241 0.6897 -0.6897 0.7241 167.4798 -152.4107)" style="fill:#FFFFFF;stroke:#263238;stroke-linecap:round;stroke-linejoin:round;stroke-miterlimit:10;" width="26.944" height="17.706"/>
			<polyline style="fill:none;stroke:#263238;stroke-linecap:round;stroke-linejoin:round;stroke-miterlimit:10;" points="
				270.598,117.437 274.248,133.139 290.109,136.019 			"/>
		</g>
		<g>
			
				<rect x="338.542" y="114.918" transform="matrix(0.9055 -0.4245 0.4245 0.9055 -19.2522 161.1146)" style="fill:#FFFFFF;stroke:#263238;stroke-linecap:round;stroke-linejoin:round;stroke-miterlimit:10;" width="26.944" height="17.706"/>
			<polyline style="fill:none;stroke:#263238;stroke-linecap:round;stroke-linejoin:round;stroke-miterlimit:10;" points="
				336.058,121.473 352.014,123.771 360.454,110.037 			"/>
		</g>
		<g>
			
				<rect x="298.103" y="122.139" transform="matrix(-0.2416 0.9704 -0.9704 -0.2416 513.9512 -139.7133)" style="fill:#FFFFFF;stroke:#263238;stroke-linecap:round;stroke-linejoin:round;stroke-miterlimit:10;" width="26.944" height="17.706"/>
			<polyline style="fill:none;stroke:#263238;stroke-linecap:round;stroke-linejoin:round;stroke-miterlimit:10;" points="
				323.42,120.058 311.575,130.992 316.911,146.204 			"/>
		</g>
		<g>
			
				<rect x="238.631" y="224.421" transform="matrix(0.8207 -0.5713 0.5713 0.8207 -88.0783 185.8474)" style="fill:#FFFFFF;stroke:#263238;stroke-linecap:round;stroke-linejoin:round;stroke-miterlimit:10;" width="26.944" height="17.706"/>
			<polyline style="fill:none;stroke:#263238;stroke-linecap:round;stroke-linejoin:round;stroke-miterlimit:10;" points="
				235.988,233.704 252.103,233.274 258.102,218.311 			"/>
		</g>
		<g>
			
				<rect x="271.849" y="227.791" transform="matrix(0.8207 -0.5713 0.5713 0.8207 -84.0487 205.4292)" style="fill:#FFFFFF;stroke:#263238;stroke-linecap:round;stroke-linejoin:round;stroke-miterlimit:10;" width="26.944" height="17.706"/>
			<polyline style="fill:none;stroke:#263238;stroke-linecap:round;stroke-linejoin:round;stroke-miterlimit:10;" points="
				269.206,237.074 285.321,236.644 291.32,221.681 			"/>
		</g>
		<g>
			
				<rect x="237.444" y="139.47" transform="matrix(0.8895 0.4569 -0.4569 0.8895 95.5031 -98.2644)" style="fill:#FFFFFF;stroke:#263238;stroke-linecap:round;stroke-linejoin:round;stroke-miterlimit:10;" width="26.944" height="17.706"/>
			<polyline style="fill:none;stroke:#263238;stroke-linecap:round;stroke-linejoin:round;stroke-miterlimit:10;" points="
				242.978,134.293 250.916,148.323 266.945,146.605 			"/>
		</g>
		<g>
			
				<rect x="248.035" y="242.012" transform="matrix(0.8895 0.4569 -0.4569 0.8895 143.5289 -91.7724)" style="fill:#FFFFFF;stroke:#263238;stroke-linecap:round;stroke-linejoin:round;stroke-miterlimit:10;" width="26.944" height="17.706"/>
			<polyline style="fill:none;stroke:#263238;stroke-linecap:round;stroke-linejoin:round;stroke-miterlimit:10;" points="
				253.569,236.835 261.507,250.865 277.536,249.146 			"/>
		</g>
	</g>
</g>
</svg>
